<?xml version="1.0" encoding="UTF-8" standalone="no"?>
<!-- Created with Inkscape (http://www.inkscape.org/) -->

<svg
   xmlns:dc="http://purl.org/dc/elements/1.1/"
   xmlns:cc="http://creativecommons.org/ns#"
   xmlns:rdf="http://www.w3.org/1999/02/22-rdf-syntax-ns#"
   xmlns:svg="http://www.w3.org/2000/svg"
   xmlns="http://www.w3.org/2000/svg"
   xmlns:sodipodi="http://sodipodi.sourceforge.net/DTD/sodipodi-0.dtd"
   xmlns:inkscape="http://www.inkscape.org/namespaces/inkscape"
   width="500"
   height="500"
   id="svg11653"
   version="1.1"
   inkscape:version="0.48.4 r9939"
   sodipodi:docname="logo_500_500.svg">
  <defs
     id="defs11655" />
  <sodipodi:namedview
     id="base"
     pagecolor="#ffffff"
     bordercolor="#666666"
     borderopacity="1.0"
     inkscape:pageopacity="0.0"
     inkscape:pageshadow="2"
     inkscape:zoom="0.7"
     inkscape:cx="320.35714"
     inkscape:cy="148.57143"
     inkscape:document-units="px"
     inkscape:current-layer="layer1"
     showgrid="false"
     inkscape:window-width="1920"
     inkscape:window-height="1010"
     inkscape:window-x="0"
     inkscape:window-y="22"
     inkscape:window-maximized="1" />
  <metadata
     id="metadata11658">
    <rdf:RDF>
      <cc:Work
         rdf:about="">
        <dc:format>image/svg+xml</dc:format>
        <dc:type
           rdf:resource="http://purl.org/dc/dcmitype/StillImage" />
        <dc:title></dc:title>
      </cc:Work>
    </rdf:RDF>
  </metadata>
  <g
     inkscape:label="Layer 1"
     inkscape:groupmode="layer"
     id="layer1"
     transform="translate(0,-552.36218)">
    <g
       id="g11761">
      <path
         inkscape:export-ydpi="90"
         inkscape:export-xdpi="90"
         inkscape:export-filename="/media/rahulkondi/Do_it/GLUG/FHM/website/REDESIGN.png"
         inkscape:connector-curvature="0"
         id="path6638-6-3-7-0-2"
         d="m 282.31326,603.05471 c -2.89435,0.059 -5.12734,2.3395 -7.36524,7.49602 -1.16312,2.67996 -2.56461,5.32167 -3.11414,5.87102 -0.83982,0.83996 -4.53215,1.01882 -23.16725,1.13204 -25.30934,0.15359 -22.78652,0.79356 -26.12542,-6.65087 -3.84386,-8.57037 -5.57356,-8.79368 -20.12861,-2.63116 -14.44611,6.11626 -15.73413,6.78217 -16.73276,8.64811 -1.30047,2.43006 -1.01138,4.77409 1.303,10.54974 1.95716,4.8841 2.01658,5.29734 1.0565,7.15395 -0.56038,1.08367 -4.2589,4.8613 -8.22048,8.3915 -3.96158,3.53021 -9.00943,8.58924 -11.21886,11.24399 -2.20948,2.65491 -5.44625,6.26307 -7.19418,8.01928 -3.76952,3.78761 -5.27346,3.98833 -11.34971,1.51935 -2.26558,-0.92069 -5.07768,-1.67534 -6.25337,-1.67534 -3.9334,0 -5.17643,1.78893 -10.54977,15.22358 -2.76331,6.90886 -5.08628,13.16384 -5.16674,13.90035 -0.49673,4.54808 1.2205,6.61088 7.4759,8.96503 2.33568,0.87902 4.75986,2.04152 5.38807,2.58598 1.62381,1.40694 1.9728,5.26609 1.36842,15.23348 -0.29032,4.78706 -0.25404,13.11357 0.0804,18.50359 0.33464,5.39002 0.42983,10.50923 0.21132,11.37987 -0.30032,1.19645 -1.84311,2.26388 -6.30874,4.36682 -6.21501,2.92687 -7.79421,4.58247 -7.69219,8.07457 0.0302,1.02364 2.05377,6.53263 4.49257,12.24016 6.54829,15.32558 6.80994,15.80643 9.38764,17.02963 2.57107,1.21998 4.12423,0.99165 9.5587,-1.40869 6.50913,-2.87508 7.52151,-2.41345 16.09884,7.36517 3.28311,3.74302 8.32327,8.76504 11.19872,11.15845 8.66639,7.21407 11.01262,9.78642 11.01262,12.06932 0,1.10975 -0.75469,3.87204 -1.67525,6.13753 -2.22557,5.4773 -2.17898,8.17264 0.17106,10.50464 1.47345,1.46216 18.56513,8.87534 26.94544,11.68667 2.46329,0.82648 5.30994,-0.45725 7.03319,-2.9883 l 0.65907,-5.32773 c 1.59976,-16.88944 1.74983,-16.45944 -8.23054,-26.07006 -12.14009,-11.69031 -16.38327,-16.60166 -19.5551,-22.59887 -3.3416,-6.3177 -11.75376,-25.44604 -13.50794,-30.72364 -1.11948,-3.36882 -1.09346,-3.41829 0.24145,-3.76305 1.38218,-0.35693 5.79562,1.71235 8.65817,4.05492 l 1.56464,1.29284 -0.26158,-4.45228 c -0.14228,-2.45884 -0.36786,-5.31978 -0.51319,-6.3338 -0.19303,-1.34997 0.0875,-2.01581 1.07161,-2.47531 0.31045,-0.14463 0.66312,-0.20991 1.02629,-0.21624 5.44275,-0.10295 16.4247,14.84435 21.75353,30.11987 1.04141,2.98538 2.43776,6.30204 3.09904,7.37523 0.66122,1.07332 4.81614,4.40434 9.25181,7.39547 9.67907,6.52688 15.37495,12.11164 16.07876,15.75186 0.27038,1.39791 0.572,5.02654 0.64895,8.05935 0.13093,4.35392 0.15861,10.33998 0.25656,16.76792 2.86262,0.14069 5.76022,0.16116 8.91983,0.0597 0.57462,-12.25816 1.06828,-23.43388 1.18729,-26.93035 0.21735,-6.36739 0.58752,-8.56636 1.78592,-11.2743 3.49916,-7.90817 22.30582,-30.78564 25.18971,-30.62813 0.5359,0.0299 1.58442,1.49065 2.31924,3.23995 0.73475,1.74929 1.69238,3.09911 2.09286,2.99842 1.20989,-0.30345 4.98574,-10.6701 6.40933,-17.56286 0.73527,-3.55848 2.015,-7.81841 2.85257,-9.46308 2.09015,-4.10374 6.55277,-8.40251 8.59271,-8.29089 1.81177,0.0994 1.69515,-0.31758 2.75693,10.15726 0.38582,3.80699 1.01377,9.49812 1.40867,12.65785 0.79076,6.32397 0.38817,9.21034 -3.16949,23.10683 l -1.93187,7.56639 -9.85043,9.93607 c -12.14745,12.28402 -15.89224,16.73193 -16.60698,19.61043 -0.3477,1.40045 0.16068,8.13585 1.38849,17.99046 0.27883,2.23772 0.55222,4.51326 0.81504,6.79674 1.03237,1.789 1.80789,2.39677 3.19963,2.97831 2.92736,1.22305 2.44812,1.36432 17.25594,-4.93029 16.38479,-6.96504 17.30148,-8.06299 13.88027,-16.60706 -3.32963,-8.31529 -3.16269,-8.74274 6.90741,-17.52257 3.7513,-3.27054 8.77582,-8.30174 11.16356,-11.17864 2.38766,-2.87682 5.65542,-6.57496 7.26457,-8.2154 2.61747,-2.667 3.18362,-2.94655 5.35794,-2.66627 1.33675,0.17209 4.4952,1.07413 7.02311,2.00728 5.1776,1.9111 7.47406,1.61625 9.73481,-1.2578 2.06825,-2.6294 11.0436,-25.74104 10.97235,-28.25351 -0.0868,-3.05998 -2.117,-5.02989 -7.46583,-7.24437 -2.44353,-1.01176 -4.95609,-2.27007 -5.58429,-2.79726 -1.62923,-1.36731 -1.98705,-5.32904 -1.30299,-14.52911 0.37956,-5.10631 0.34254,-11.97889 -0.1057,-18.85082 -0.83395,-12.78601 -0.72395,-13.11495 5.30256,-15.58575 5.48579,-2.24916 7.00016,-3.34449 8.02431,-5.79554 1.11948,-2.67931 0.96794,-3.20242 -5.06613,-17.30626 -5.53544,-12.93857 -5.78733,-13.40019 -7.80292,-14.47898 -2.29205,-1.22661 -4.30321,-0.97081 -10.21269,1.30807 -5.13746,1.9812 -5.57282,2.04488 -7.42564,1.08674 -1.08239,-0.55976 -4.83271,-4.25761 -8.33113,-8.21548 -3.49837,-3.9578 -8.53811,-9.00452 -11.20383,-11.21398 -2.66553,-2.20931 -6.29443,-5.44619 -8.06452,-7.1941 -3.79918,-3.75176 -3.98465,-5.08278 -1.54446,-11.08807 2.02015,-4.97168 2.12252,-8.07997 0.34213,-10.34356 -1.50443,-1.91249 -25.6309,-11.93409 -28.95783,-12.02887 -0.0948,0 -0.18837,0 -0.28172,0 z m 16.52142,61.73419 c 0.55951,0.0189 1.87215,1.02262 3.0387,2.32421 2.08029,2.32114 2.25914,2.83566 2.05261,6.61561 -0.27283,4.9904 -1.92107,11.89424 -6.35907,26.63354 -3.98847,13.24646 -7.82361,20.66831 -13.36205,25.78825 -4.04617,3.74076 -6.50313,4.63391 -17.20064,6.22328 -7.87694,1.17037 -9.19222,1.54974 -8.90465,2.58576 0.14982,0.53929 2.51323,0.81549 7.46583,0.91566 6.84586,0.13887 7.29809,0.24881 8.62292,1.83636 2.27966,2.73177 2.8145,6.22853 1.40367,9.14623 -1.82237,3.76895 -5.56281,7.60872 -10.51461,10.75599 -7.61407,4.83922 -14.76729,6.25512 -18.1464,3.60219 -1.41366,-1.11005 -1.64771,-1.06459 -4.15554,0.47787 -3.5061,2.15641 -6.21539,1.90622 -12.43635,-1.11187 -6.51356,-3.15995 -13.7167,-10.79745 -15.1983,-16.1289 -1.14925,-4.13557 -1.04963,-7.60763 0.23138,-8.55761 0.5159,-0.38272 4.13284,-0.59852 8.04943,-0.4931 7.3127,0.19679 9.19982,-0.44675 5.99682,-2.12304 -0.93897,-0.49135 -5.39297,-1.56322 -9.8807,-2.36945 -9.05447,-1.6269 -10.73433,-2.39757 -14.172,-6.42452 -8.76753,-10.26982 -18.47036,-38.16297 -17.76408,-51.08362 0.15468,-2.82903 0.31248,-3.09488 1.80108,-3.0135 2.18567,0.1197 6.43002,3.65777 26.09019,21.9849 9.11856,8.5005 17.33997,15.6962 18.2823,15.98828 1.33203,0.41274 1.96134,0.20648 2.86255,-1.01125 2.95424,-3.99219 6.81898,-7.88114 7.78781,-7.82802 0.58729,0.0313 2.72814,2.00334 4.77933,4.38685 2.05144,2.38366 4.33593,4.37017 5.05608,4.40703 2.00503,0.10179 4.75668,-1.77078 11.84774,-8.03938 8.93847,-7.9011 15.21413,-14.56408 24.14831,-25.73798 4.18924,-5.23942 7.98756,-9.61753 8.47201,-9.73971 0.0302,-0.0124 0.0683,-0.0124 0.10558,-0.0124 z"
         style="opacity:0.88163261;fill:#000000;fill-opacity:0.98823529;stroke:#000000;stroke-width:0.66952574;stroke-opacity:0" />
      <g
         transform="translate(-8.392333e-8,-16.761657)"
         style="font-size:35.70028687px;font-style:normal;font-variant:normal;font-weight:normal;font-stretch:normal;line-height:125%;letter-spacing:0px;word-spacing:0px;fill:#000000;fill-opacity:1;stroke:none;font-family:PT Sans;-inkscape-font-specification:PT Sans"
         id="text12781-2-8">
        <path
           d="m 33.990121,998.41774 -20.456264,0 0,5.06946 10.674386,0 0,5.1051 -10.674386,0 0,10.1746 -4.9266397,0 0,-25.3829 25.3829037,0 0,5.03374"
           style="font-weight:bold;font-family:alfphabet;-inkscape-font-specification:alfphabet"
           id="path11708"
           inkscape:connector-curvature="0" />
        <path
           d="m 36.707248,993.3483 17.778743,0 c 1.070987,0.14283 2.070594,0.46413 2.998824,0.96391 0.951984,0.49983 1.761189,1.14243 2.42762,1.92782 0.690179,0.76162 1.225683,1.61843 1.606513,2.57042 0.404575,0.95202 0.606877,1.93975 0.606904,2.96315 l 0,0.357 0,0.357 c -2.7e-5,0.6902 -0.09523,1.3923 -0.285602,2.1063 -0.190429,0.6902 -0.464131,1.3566 -0.821106,1.9992 -0.35703,0.6188 -0.785433,1.19 -1.285211,1.7136 -0.476029,0.5236 -0.999632,0.9639 -1.570812,1.3209 l 4.069832,9.1393 -5.604945,0 -3.391527,-7.7113 -11.388391,0 0,7.7113 -5.140842,0 0,-25.4186 m 5.140842,12.5665 11.388391,0 c 0.523585,0 1.011488,-0.095 1.463712,-0.2856 0.475983,-0.1904 0.892486,-0.4522 1.24951,-0.7854 0.356981,-0.357 0.630683,-0.7616 0.821106,-1.2138 0.214179,-0.4522 0.32128,-0.952 0.321303,-1.4994 -2.3e-5,-0.4998 -0.107124,-0.9758 -0.321303,-1.428 -0.214224,-0.476 -0.499826,-0.89253 -0.856806,-1.24955 -0.357025,-0.35698 -0.773528,-0.64258 -1.249511,-0.85681 -0.452223,-0.21418 -0.928227,-0.32128 -1.428011,-0.3213 l -11.388391,0 0,7.63986"
           style="font-weight:bold;font-family:alfphabet;-inkscape-font-specification:alfphabet"
           id="path11710"
           inkscape:connector-curvature="0" />
        <path
           d="m 92.212266,998.38204 -20.384863,0 0,5.03376 10.602985,0 0,5.1051 -10.602985,0 0,5.1409 20.384863,0 0,5.1051 -25.382904,0 0,-20.38486 0,-4.99804 25.382904,0 0,4.99804"
           style="font-weight:bold;font-family:alfphabet;-inkscape-font-specification:alfphabet"
           id="path11712"
           inkscape:connector-curvature="0" />
        <path
           d="m 122.61329,998.38204 -20.38486,0 0,5.03376 10.60298,0 0,5.1051 -10.60298,0 0,5.1409 20.38486,0 0,5.1051 -25.382904,0 0,-20.38486 0,-4.99804 25.382904,0 0,4.99804"
           style="font-weight:bold;font-family:alfphabet;-inkscape-font-specification:alfphabet"
           id="path11714"
           inkscape:connector-curvature="0" />
        <path
           d="m 150.3368,996.06152 c 0.80918,0.76163 1.43989,1.67794 1.89212,2.74893 0.47597,1.04722 0.71397,2.21345 0.714,3.49865 l 0,7.6041 c -3e-5,1.2139 -0.23803,2.3682 -0.714,3.463 -0.47604,1.071 -1.11864,2.0111 -1.92782,2.8203 -0.78543,0.7854 -1.71364,1.4161 -2.78462,1.8921 -1.07103,0.4522 -2.21344,0.6783 -3.42723,0.6783 l -16.45783,0 0,-25.4186 16.45783,0 c 1.21379,3e-5 2.3562,0.24993 3.42723,0.74971 1.07098,0.49983 2.01109,1.15433 2.82032,1.96351 m -2.42762,6.24758 c -2e-5,-0.4998 -0.10712,-0.9758 -0.3213,-1.428 -0.21423,-0.476 -0.49983,-0.8806 -0.85681,-1.21385 -0.33322,-0.35698 -0.73783,-0.64258 -1.21381,-0.8568 -0.45222,-0.21419 -0.92823,-0.32129 -1.42801,-0.32131 l -11.38839,0 0,15.20836 11.38839,0 c 0.52358,0 1.01149,-0.095 1.46371,-0.2856 0.47598,-0.2142 0.88059,-0.4998 1.21381,-0.8568 0.35698,-0.357 0.63068,-0.7616 0.82111,-1.2139 0.21418,-0.4521 0.32128,-0.9282 0.3213,-1.428 l 0,-7.6041"
           style="font-weight:bold;font-family:alfphabet;-inkscape-font-specification:alfphabet"
           id="path11716"
           inkscape:connector-curvature="0" />
        <path
           d="m 166.04102,1018.7669 c -1.21382,0 -2.36813,-0.2261 -3.46293,-0.6783 -1.07101,-0.476 -2.01112,-1.1067 -2.82032,-1.8921 -0.78541,-0.8092 -1.41612,-1.7493 -1.89212,-2.8203 -0.4522,-1.0948 -0.6783,-2.2491 -0.6783,-3.463 l 0,-7.6398 c 0,-1.2138 0.2261,-2.35623 0.6783,-3.42725 0.476,-1.09479 1.10671,-2.0349 1.89212,-2.82033 0.8092,-0.80918 1.74931,-1.43988 2.82032,-1.89211 1.0948,-0.47598 2.24911,-0.71398 3.46293,-0.71401 l 7.63986,0 c 1.21379,3e-5 2.3562,0.23803 3.42723,0.71401 1.09478,0.45223 2.03489,1.08293 2.82032,1.89211 0.80918,0.78543 1.43989,1.72554 1.89212,2.82033 0.47597,1.07102 0.71397,2.21345 0.714,3.42725 l 0,7.6398 c -3e-5,1.2139 -0.23803,2.3682 -0.714,3.463 -0.45223,1.071 -1.08294,2.0111 -1.89212,2.8203 -0.78543,0.7854 -1.72554,1.4161 -2.82032,1.8921 -1.07103,0.4522 -2.21344,0.6783 -3.42723,0.6783 l -7.63986,0 m -2.67752,-19.17105 c -0.35701,0.35702 -0.64261,0.76165 -0.85681,1.21385 -0.21421,0.4284 -0.32131,0.9163 -0.3213,1.4637 l 0,7.6398 c -1e-5,0.5236 0.0952,1.0116 0.2856,1.4637 0.21419,0.4523 0.4998,0.8569 0.85681,1.2139 0.35699,0.3332 0.76159,0.595 1.21381,0.7854 0.47599,0.1904 0.97579,0.2856 1.49941,0.2856 l 7.63986,0 c 1.07099,0 1.9635,-0.357 2.67752,-1.071 0.71399,-0.714 1.07099,-1.6065 1.07101,-2.6776 l 0,-7.6398 c -2e-5,-0.5236 -0.0952,-1.0115 -0.2856,-1.4637 -0.19042,-0.476 -0.46413,-0.89253 -0.82111,-1.24955 -0.33322,-0.35698 -0.72592,-0.63068 -1.17811,-0.8211 -0.45222,-0.21419 -0.94012,-0.32129 -1.46371,-0.32131 l -7.63986,0 c -0.54742,2e-5 -1.04722,0.10712 -1.49941,0.32131 -0.42842,0.21422 -0.82112,0.49982 -1.17811,0.8568"
           style="font-weight:bold;font-family:alfphabet;-inkscape-font-specification:alfphabet"
           id="path11718"
           inkscape:connector-curvature="0" />
        <path
           d="m 207.38641,993.384 5.10515,0 0,25.3829 -5.10515,0 0,-18.1714 -4.06983,3.9984 0.1071,0 -3.64143,3.57 -7.67556,-7.5684 0,18.1714 -4.99804,0 0,-25.3829 5.10514,0 7.56846,7.6042 7.60416,-7.6042"
           style="font-weight:bold;font-family:alfphabet;-inkscape-font-specification:alfphabet"
           id="path11720"
           inkscape:connector-curvature="0" />
        <path
           d="m 217.50968,1018.7669 0,-4.2483 4.24834,0 0,4.2483 -4.24834,0"
           style="font-weight:bold;font-family:alfphabet;-inkscape-font-specification:alfphabet"
           id="path11722"
           inkscape:connector-curvature="0" />
        <path
           d="m 272.09485,993.384 5.06945,0 0,25.3829 -5.06945,0 0,-10.2103 -15.20832,0 0,10.2103 -5.14084,0 0,-25.3829 5.14084,0 0,10.0675 15.20832,0 0,-10.0675"
           style="font-weight:bold;font-family:alfphabet;-inkscape-font-specification:alfphabet"
           id="path11724"
           inkscape:connector-curvature="0" />
        <path
           d="m 290.71478,993.3126 5.53354,0 10.03178,25.4543 -5.49784,0 -1.49942,-3.7485 -11.49549,0 -1.53511,3.7485 -5.49784,0 9.96038,-25.4543 m -0.96391,16.5292 7.53276,0 -3.74853,-9.6033 -3.78423,9.6033"
           style="font-weight:bold;font-family:alfphabet;-inkscape-font-specification:alfphabet"
           id="path11726"
           inkscape:connector-curvature="0" />
        <path
           d="m 309.89811,993.3483 17.77874,0 c 1.07099,0.14283 2.0706,0.46413 2.99883,0.96391 0.95198,0.49983 1.76119,1.14243 2.42762,1.92782 0.69018,0.76162 1.22568,1.61843 1.60651,2.57042 0.40458,0.95202 0.60688,1.93975 0.60691,2.96315 l 0,0.357 0,0.357 c -3e-5,0.6902 -0.0952,1.3923 -0.28561,2.1063 -0.19043,0.6902 -0.46413,1.3566 -0.8211,1.9992 -0.35703,0.6188 -0.78544,1.19 -1.28521,1.7136 -0.47603,0.5236 -0.99964,0.9639 -1.57082,1.3209 l 4.06984,9.1393 -5.60495,0 -3.39153,-7.7113 -11.38839,0 0,7.7113 -5.14084,0 0,-25.4186 m 5.14084,12.5665 11.38839,0 c 0.52359,0 1.01149,-0.095 1.46372,-0.2856 0.47598,-0.1904 0.89248,-0.4522 1.24951,-0.7854 0.35698,-0.357 0.63068,-0.7616 0.8211,-1.2138 0.21418,-0.4522 0.32128,-0.952 0.3213,-1.4994 -2e-5,-0.4998 -0.10712,-0.9758 -0.3213,-1.428 -0.21422,-0.476 -0.49982,-0.89253 -0.8568,-1.24955 -0.35703,-0.35698 -0.77353,-0.64258 -1.24951,-0.85681 -0.45223,-0.21418 -0.92823,-0.32128 -1.42802,-0.3213 l -11.38839,0 0,7.63986"
           style="font-weight:bold;font-family:alfphabet;-inkscape-font-specification:alfphabet"
           id="path11728"
           inkscape:connector-curvature="0" />
        <path
           d="m 362.72562,996.06152 c 0.80919,0.76163 1.43989,1.67794 1.89212,2.74893 0.47598,1.04722 0.71398,2.21345 0.71401,3.49865 l 0,7.6041 c -3e-5,1.2139 -0.23803,2.3682 -0.71401,3.463 -0.47603,1.071 -1.11864,2.0111 -1.92782,2.8203 -0.78543,0.7854 -1.71363,1.4161 -2.78462,1.8921 -1.07103,0.4522 -2.21344,0.6783 -3.42723,0.6783 l -16.45783,0 0,-25.4186 16.45783,0 c 1.21379,3e-5 2.3562,0.24993 3.42723,0.74971 1.07099,0.49983 2.01109,1.15433 2.82032,1.96351 m -2.42761,6.24758 c -3e-5,-0.4998 -0.10713,-0.9758 -0.32131,-1.428 -0.21422,-0.476 -0.49982,-0.8806 -0.8568,-1.21385 -0.33323,-0.35698 -0.73783,-0.64258 -1.21381,-0.8568 -0.45223,-0.21419 -0.92823,-0.32129 -1.42802,-0.32131 l -11.38839,0 0,15.20836 11.38839,0 c 0.52359,0 1.01149,-0.095 1.46372,-0.2856 0.47598,-0.2142 0.88058,-0.4998 1.21381,-0.8568 0.35698,-0.357 0.63068,-0.7616 0.8211,-1.2139 0.21418,-0.4521 0.32128,-0.9282 0.32131,-1.428 l 0,-7.6041"
           style="font-weight:bold;font-family:alfphabet;-inkscape-font-specification:alfphabet"
           id="path11730"
           inkscape:connector-curvature="0" />
        <path
           d="m 389.38983,1018.7669 -5.17654,0 -2.28482,-4.4982 -2.85602,4.4982 -5.14084,0 -4.74814,-25.4186 5.21224,0 3.49863,17.7787 4.03413,-6.9972 4.06983,6.9972 3.49863,-17.7787 5.21224,0 -5.31934,25.4186"
           style="font-weight:bold;font-family:alfphabet;-inkscape-font-specification:alfphabet"
           id="path11732"
           inkscape:connector-curvature="0" />
        <path
           d="m 407.43798,993.3126 5.53355,0 10.03178,25.4543 -5.49785,0 -1.49941,-3.7485 -11.49549,0 -1.53511,3.7485 -5.49785,0 9.96038,-25.4543 m -0.96391,16.5292 7.53276,0 -3.74853,-9.6033 -3.78423,9.6033"
           style="font-weight:bold;font-family:alfphabet;-inkscape-font-specification:alfphabet"
           id="path11734"
           inkscape:connector-curvature="0" />
        <path
           d="m 426.62132,993.3483 17.77874,0 c 1.07099,0.14283 2.07059,0.46413 2.99882,0.96391 0.95199,0.49983 1.76119,1.14243 2.42762,1.92782 0.69018,0.76162 1.22569,1.61843 1.60652,2.57042 0.40457,0.95202 0.60687,1.93975 0.6069,2.96315 l 0,0.357 0,0.357 c -3e-5,0.6902 -0.0952,1.3923 -0.2856,2.1063 -0.19043,0.6902 -0.46413,1.3566 -0.82111,1.9992 -0.35703,0.6188 -0.78543,1.19 -1.28521,1.7136 -0.47603,0.5236 -0.99963,0.9639 -1.57081,1.3209 l 4.06983,9.1393 -5.60494,0 -3.39153,-7.7113 -11.38839,0 0,7.7113 -5.14084,0 0,-25.4186 m 5.14084,12.5665 11.38839,0 c 0.52358,0 1.01149,-0.095 1.46371,-0.2856 0.47598,-0.1904 0.89249,-0.4522 1.24951,-0.7854 0.35698,-0.357 0.63068,-0.7616 0.82111,-1.2138 0.21418,-0.4522 0.32128,-0.952 0.3213,-1.4994 -2e-5,-0.4998 -0.10712,-0.9758 -0.3213,-1.428 -0.21423,-0.476 -0.49983,-0.89253 -0.85681,-1.24955 -0.35702,-0.35698 -0.77353,-0.64258 -1.24951,-0.85681 -0.45222,-0.21418 -0.92823,-0.32128 -1.42801,-0.3213 l -11.38839,0 0,7.63986"
           style="font-weight:bold;font-family:alfphabet;-inkscape-font-specification:alfphabet"
           id="path11736"
           inkscape:connector-curvature="0" />
        <path
           d="m 482.12635,998.38204 -20.38486,0 0,5.03376 10.60298,0 0,5.1051 -10.60298,0 0,5.1409 20.38486,0 0,5.1051 -25.3829,0 0,-20.38486 0,-4.99804 25.3829,0 0,4.99804"
           style="font-weight:bold;font-family:alfphabet;-inkscape-font-specification:alfphabet"
           id="path11738"
           inkscape:connector-curvature="0" />
        <path
           d="m 487.14445,1018.7669 0,-4.2483 4.24833,0 0,4.2483 -4.24833,0"
           style="font-weight:bold;font-family:alfphabet;-inkscape-font-specification:alfphabet"
           id="path11740"
           inkscape:connector-curvature="0" />
      </g>
    </g>
  </g>
</svg>
