<?xml version="1.0" encoding="UTF-8" standalone="no"?>
<!-- Created with Inkscape (http://www.inkscape.org/) -->

<svg
   xmlns:dc="http://purl.org/dc/elements/1.1/"
   xmlns:cc="http://creativecommons.org/ns#"
   xmlns:rdf="http://www.w3.org/1999/02/22-rdf-syntax-ns#"
   xmlns:svg="http://www.w3.org/2000/svg"
   xmlns="http://www.w3.org/2000/svg"
   xmlns:sodipodi="http://sodipodi.sourceforge.net/DTD/sodipodi-0.dtd"
   xmlns:inkscape="http://www.inkscape.org/namespaces/inkscape"
   width="473.12543mm"
   height="543.27777mm"
   viewBox="0 0 1676.4287 1925"
   id="svg2"
   version="1.1"
   inkscape:version="0.91 r13725"
   sodipodi:docname="Although You Are You May Not Be.svg">
  <defs
     id="defs4" />
  <sodipodi:namedview
     id="base"
     pagecolor="#ffffff"
     bordercolor="#666666"
     borderopacity="1.0"
     inkscape:pageopacity="0.0"
     inkscape:pageshadow="2"
     inkscape:zoom="0.12374369"
     inkscape:cx="464.30901"
     inkscape:cy="820.31909"
     inkscape:document-units="px"
     inkscape:current-layer="layer1"
     showgrid="false"
     inkscape:window-width="1920"
     inkscape:window-height="1009"
     inkscape:window-x="0"
     inkscape:window-y="21"
     inkscape:window-maximized="1"
     showguides="false"
     inkscape:guide-bbox="true"
     fit-margin-top="0"
     fit-margin-left="0"
     fit-margin-right="0"
     fit-margin-bottom="0">
    <sodipodi:guide
       position="836.78583,-8.9285163"
       orientation="1,0"
       id="guide4807" />
  </sodipodi:namedview>
  <metadata
     id="metadata7">
    <rdf:RDF>
      <cc:Work
         rdf:about="">
        <dc:format>image/svg+xml</dc:format>
        <dc:type
           rdf:resource="http://purl.org/dc/dcmitype/StillImage" />
        <dc:title></dc:title>
      </cc:Work>
    </rdf:RDF>
  </metadata>
  <g
     inkscape:label="Layer 1"
     inkscape:groupmode="layer"
     id="layer1"
     transform="translate(2656.7858,-92.719357)">
    <g
       id="g4546"
       transform="translate(-612.15244,-155.56349)">
      <rect
         style="opacity:0.01000001;fill:#f9f9f9;fill-opacity:1;stroke:#ffffff;stroke-width:4.61490917;stroke-linecap:round;stroke-linejoin:round;stroke-miterlimit:10;stroke-dasharray:none;stroke-dashoffset:0;stroke-opacity:1"
         id="rect4805"
         width="1671.8137"
         height="1920.3851"
         x="-2042.3259"
         y="250.5903" />
      <g
         id="g4751"
         transform="translate(42.27102,0)">
        <path
           style="fill:none;stroke:#000000;stroke-width:10;stroke-miterlimit:10;stroke-dasharray:none"
           inkscape:connector-curvature="0"
           stroke-miterlimit="10"
           d="m -1325.8046,538.85109 c 0,0 -153.6505,-96.02702 -285.793,91.89644 0,0 -27.6617,-5.33483 -18.4371,47.92922 -18.8586,23.26614 -46.0988,53.76983 -36.8742,106.02231 -7.1653,12.80119 -8.7067,46.61658 -15.3663,66.06524 -21.002,18.95492 -16.3897,69.13608 -16.3897,69.13608 0,0 -29.2031,18.95492 -29.709,52.4572 -10.766,6.96058 -6.6595,28.46852 -6.6595,28.46852 0,0 -50.699,66.0772 -24.073,118.8235 4.6002,9.7424 -24.085,111.1403 1.8786,181.288 -0.855,53.806 30.8891,89.6445 41.1373,99.8927 -3.5767,17.4014 23.0493,33.8153 23.0493,33.8153 0,0 37.38,34.8752 29.1911,41.4986 10.2482,19.9544 57.3585,55.0463 70.6775,50.1691 13.319,-4.8893 50.699,32.7797 50.699,32.7797 0,0 23.5672,14.8484 44.5573,8.7067 27.1439,12.2955 53.7819,5.1302 53.7819,5.1302 0,0 89.6325,24.5908 115.2349,-26.1203 -47.38,-633.66395 0.5482,-489.3055 3.0949,-1007.95851 z"
           id="path4157-2"
           sodipodi:nodetypes="ccccccccccccccccccc" />
        <path
           style="fill:none;stroke:#000000;stroke-width:10;stroke-miterlimit:10;stroke-dasharray:none"
           inkscape:connector-curvature="0"
           stroke-miterlimit="10"
           d="m -1328.8754,1546.7976 c -28.6733,-55.3113 -36.6213,-684.43636 10.7419,-1007.10353"
           id="path4159-8" />
        <path
           style="fill:none;stroke:#000000;stroke-width:10;stroke-miterlimit:10;stroke-dasharray:none"
           inkscape:connector-curvature="0"
           stroke-miterlimit="10"
           d="m -1161.0399,690.13257 c 0,0 114.3314,-43.66388 110.2129,-35.47497 -4.0945,8.20096 -33.8033,32.77973 5.1301,38.92141 38.9335,6.14169 23.5672,46.08671 22.5316,47.12237 -1.0357,1.02361 31.7561,42.43783 25.6144,58.0931 -6.1658,15.65527 -24.085,63.80125 0.7466,63.80125 24.8317,0 -37.6328,34.82695 -43.7745,20.48432 -6.1658,-14.3306 -17.4015,39.94502 2.0472,33.80334 19.4487,-6.14169 37.958,104.48091 10.2843,75.79559 -27.7098,-28.67323 -30.7686,81.93722 -13.3551,76.81922 17.4014,-5.1061 7.1773,69.6659 7.1773,69.6659 0,0 -148.1675,84.0086 -154.8029,128.0481"
           id="path4161-9"
           sodipodi:nodetypes="ccsccscscccc" />
        <path
           style="fill:none;stroke:#000000;stroke-width:5;stroke-miterlimit:10;stroke-dasharray:none"
           inkscape:connector-curvature="0"
           stroke-miterlimit="10"
           d="m -827.84033,428.29133 c 0,0 -24.10721,60.15861 -63.56862,54.2868 -39.49795,-5.85356 -48.08675,101.49827 -29.48665,106.58595 18.61834,5.08767 29.37723,31.45607 41.85024,19.056 12.43656,-12.41831 80.70992,6.87475 93.09176,-19.056 12.38183,-25.93075 62.07332,-53.84916 55.83681,-21.28071 -6.20003,32.56843 24.78192,145.79206 -52.75503,150.44209 -77.53695,4.65003 -37.21846,-60.48683 -117.8919,-38.76847 -80.63698,21.71837 -29.55958,102.37358 -29.55958,102.37358 0,0 55.94622,134.94201 37.32786,147.34208 -18.60012,12.41831 141.14204,18.61835 131.84199,-86.85525"
           id="path4165-9" />
        <path
           style="fill:none;stroke:#000000;stroke-width:10;stroke-miterlimit:10;stroke-dasharray:none"
           inkscape:connector-curvature="0"
           stroke-miterlimit="10"
           d="m -1236.134,1168.4737 c 0,0 43.9962,14.8002 67.5393,-37.1632 1.0598,-35.5977 -31.7561,-26.3491 15.3542,-69.3769"
           id="path4167-8"
           sodipodi:nodetypes="ccc" />
        <path
           style="fill:none;stroke:#000000;stroke-width:5;stroke-miterlimit:10;stroke-dasharray:none"
           inkscape:connector-curvature="0"
           stroke-miterlimit="10"
           d="m -934.21314,1155.6705 c 0,0 60.5051,-1.4953 76.0052,45.0414 15.5001,46.5368 111.65541,-18.6002 105.45538,-35.6685 -6.20005,-17.0684 38.7867,-80.6552 38.7867,-80.6552 0,0 85.30524,0.3829 71.33691,38.2031 -13.96833,37.8203 -27.9184,28.1921 -27.9184,28.1921 0,0 54.52386,187.9888 97.08529,122.8337 42.52498,-65.1369 -9.40947,150.4603 -40.06319,148.9102 -30.63547,-1.55 -67.85394,-31.8936 -72.5222,-85.7429"
           id="path4169-2" />
        <path
           style="fill:none;stroke:#000000;stroke-width:10;stroke-miterlimit:10;stroke-dasharray:none"
           inkscape:connector-curvature="0"
           stroke-miterlimit="10"
           d="m -815.39715,1371.835 c 0,0 -42.34148,11.2839 -64.89712,72.7368 -22.53154,61.465 -119.85923,24.5788 -124.47153,19.4487 -4.5882,-5.1301 -38.4035,32.7797 -27.1438,44.0395 11.2959,11.2838 -208.6299,22.0825 -231.1614,-7.6144"
           id="path4171-2"
           sodipodi:nodetypes="ccccc" />
        <path
           style="fill:none;stroke:#000000;stroke-width:5;stroke-miterlimit:10;stroke-dasharray:none"
           inkscape:connector-curvature="0"
           stroke-miterlimit="10"
           d="m -994.0024,1316.1264 c 0,0 3.5924,-9.4276 50.6397,-7.8229 47.0838,1.6047 47.0838,1.6047 47.0838,1.6047 0,0 26.2773,4.6501 16.2478,-15.5183 -10.0295,-20.1684 34.939,-10.85 34.939,-10.85"
           id="path4173-8" />
        <path
           style="fill:none;stroke:#000000;stroke-width:10;stroke-miterlimit:10;stroke-dasharray:none"
           inkscape:connector-curvature="0"
           stroke-miterlimit="10"
           d="m -1287.829,1438.9584 c 0,0 69.8097,-6.1537 76.975,-21.5079 7.1774,-15.3663 9.1283,-53.2761 34.273,-66.5831 25.1448,-13.307 16.6067,-34.0923 16.6067,-34.0923"
           id="path4175-1"
           sodipodi:nodetypes="ccsc" />
        <path
           style="fill:none;stroke:#000000;stroke-width:5;stroke-miterlimit:10;stroke-dasharray:none"
           inkscape:connector-curvature="0"
           stroke-miterlimit="10"
           d="m -544.81059,1077.7768 c 0,0 -100.75062,-29.4684 -159.70569,-83.7733 -58.95508,-54.305 0,-57.3868 0,-57.3868"
           id="path4177-3" />
        <path
           style="fill:none;stroke:#000000;stroke-width:10;stroke-miterlimit:10;stroke-dasharray:none"
           inkscape:connector-curvature="0"
           stroke-miterlimit="10"
           d="m -1317.2815,1482.2277 -21.4959,54.5526 c 0,0 8.1889,24.6029 17.4014,28.6973 119.444,52.9372 221.9679,61.9116 340.81718,2.0828"
           id="path4179-5"
           sodipodi:nodetypes="cccc" />
        <path
           style="fill:none;stroke:#000000;stroke-width:5;stroke-miterlimit:10;stroke-dasharray:none"
           inkscape:connector-curvature="0"
           stroke-miterlimit="10"
           d="m -724.43217,1398.5627 c 0,0 1.31295,-47.5032 -32.69608,-92.7818"
           id="path4181-3" />
        <path
           style="fill:none;stroke:#000000;stroke-width:5;stroke-miterlimit:10;stroke-dasharray:none"
           inkscape:connector-curvature="0"
           stroke-miterlimit="10"
           d="m -906.59756,1107.7046 c 0,0 -10.86829,46.5367 -62.03684,27.9002"
           id="path4183-2" />
        <path
           style="fill:none;stroke:#000000;stroke-width:5;stroke-miterlimit:10;stroke-dasharray:none"
           inkscape:connector-curvature="0"
           stroke-miterlimit="10"
           d="m -930.9274,1520.8386 c 0,0 -42.9444,29.4866 -71.9022,17.0866"
           id="path4185-9" />
        <path
           style="fill:none;stroke:#000000;stroke-width:5;stroke-miterlimit:10;stroke-dasharray:none"
           inkscape:connector-curvature="0"
           stroke-miterlimit="10"
           d="m -1039.4423,1283.6374 c 0,0 -2.4618,-28.9943 -41.2485,-23.9065"
           id="path4189-6" />
        <path
           style="fill:none;stroke:#000000;stroke-width:5;stroke-miterlimit:10;stroke-dasharray:none"
           inkscape:connector-curvature="0"
           stroke-miterlimit="10"
           d="m -1008.0642,533.44553 c -36.7578,-16.96515 -93.6331,76.1065 -70.7107,103.74475"
           id="path4191-4"
           sodipodi:nodetypes="cc" />
        <path
           style="fill:none;stroke:#000000;stroke-width:10;stroke-miterlimit:10;stroke-dasharray:none"
           inkscape:connector-curvature="0"
           stroke-miterlimit="10"
           d="m -1236.1987,809.14438 c 0,0 126.3096,-12.25645 120.1438,81.97624"
           id="path4193-5"
           sodipodi:nodetypes="cc" />
        <path
           style="fill:none;stroke:#000000;stroke-width:5;stroke-miterlimit:10;stroke-dasharray:none"
           inkscape:connector-curvature="0"
           stroke-miterlimit="10"
           d="m -682.78534,798.37824 c 0,0 -7.47651,-30.83608 -36.92669,-30.83608"
           id="path4195-6" />
        <path
           style="fill:none;stroke:#000000;stroke-width:5;stroke-miterlimit:10;stroke-dasharray:none"
           inkscape:connector-curvature="0"
           stroke-miterlimit="10"
           d="m -763.0192,999.92015 c 0,0 -44.98675,56.52975 -41.88673,78.68575 3.10002,22.1378 -165.31447,-8.8806 -165.31447,-8.8806"
           id="path4197-2"
           sodipodi:nodetypes="ccc" />
        <path
           style="fill:none;stroke:#000000;stroke-width:5;stroke-miterlimit:10;stroke-dasharray:none"
           inkscape:connector-curvature="0"
           stroke-miterlimit="10"
           d="m -978.531,892.76447 c 0,0 46.62793,49.10795 55.90973,53.30209 9.3366,4.19415 -44.95023,36.48906 -34.1184,73.06934"
           id="path4199-6" />
        <path
           style="fill:none;stroke:#000000;stroke-width:10;stroke-miterlimit:10;stroke-dasharray:none"
           inkscape:connector-curvature="0"
           stroke-miterlimit="10"
           d="m -1124.1802,1245.7506 c 0,0 117.9429,134.1898 118.7618,130.0833 0.8189,-4.0945 63.15101,81.9493 77.04801,-20.4844"
           id="path4201-3"
           sodipodi:nodetypes="ccc" />
        <path
           style="fill:none;stroke:#000000;stroke-width:10;stroke-miterlimit:10;stroke-dasharray:none"
           inkscape:connector-curvature="0"
           stroke-miterlimit="10"
           d="m -1191.2856,953.39554 c 0,0 -79.9864,-3.28761 -79.5047,70.34036"
           id="path4203-2" />
        <path
           style="fill:none;stroke:#000000;stroke-width:10;stroke-miterlimit:10;stroke-dasharray:none"
           inkscape:connector-curvature="0"
           stroke-miterlimit="10"
           d="m -1335.3028,573.66008 c 0,0 122.4074,-163.41006 283.0061,-98.84118"
           id="path4205-8"
           sodipodi:nodetypes="cc" />
        <path
           style="fill:none;stroke:#000000;stroke-width:10;stroke-miterlimit:10;stroke-dasharray:none"
           inkscape:connector-curvature="0"
           stroke-miterlimit="10"
           d="m -1148.2767,539.19646 c 0,0 -50.3341,5.8194 -13.3771,45.01853 36.957,39.17392 -124.0897,43.66744 -88.4679,79.03733"
           id="path4207-7"
           sodipodi:nodetypes="ccc" />
        <path
           style="fill:none;stroke:#000000;stroke-width:5;stroke-miterlimit:10;stroke-dasharray:none"
           inkscape:connector-curvature="0"
           stroke-miterlimit="10"
           d="m -1463.0172,637.00964 c 0,0 -11.2839,35.11598 -7.1774,43.31693 4.1065,8.20095 33.8154,32.77973 -5.118,38.92141 -38.9335,6.14169 -23.5793,46.08671 -22.5436,47.12237 1.0356,1.02361 -31.7561,42.43782 -25.6025,58.09309 6.1417,15.65528 24.0731,63.80125 -0.7707,63.80125 -24.8437,0 37.645,34.82696 43.7867,20.48432 6.1416,-14.33059 -2.0473,33.80335 -2.0473,33.80335 0,0 53.8542,16.26944 -10.2722,75.79554 27.6857,-28.67318 30.7565,81.9493 13.3431,76.8313 -17.4135,-5.1181 -7.1653,69.6539 -7.1653,69.6539 0,0 101.9158,85.7306 108.5512,129.7701"
           id="path4211-2" />
        <path
           style="fill:none;stroke:#000000;stroke-width:10;stroke-miterlimit:10;stroke-dasharray:none"
           inkscape:connector-curvature="0"
           stroke-miterlimit="10"
           d="m -1616.6676,663.93671 c 0,0 29.6967,-24.59082 48.1339,-18.4371 18.4371,6.15373 7.1773,34.839 7.1773,34.839 0,0 21.6645,44.03948 31.3226,38.92142 9.658,-5.11807 33.7311,11.06707 33.7311,11.06707"
           id="path4213-7" />
        <path
           style="fill:none;stroke:#000000;stroke-width:5;stroke-miterlimit:10;stroke-dasharray:none"
           inkscape:connector-curvature="0"
           stroke-miterlimit="10"
           d="m -1597.4552,697.36223 c 0,0 -15.9323,39.71621 -42.0043,35.85057 -26.0721,-3.87769 -31.7561,67.02864 -19.4607,70.3885 12.2954,3.35987 19.4005,20.77334 27.6135,12.57239 8.213,-8.20095 53.3122,4.54003 61.4891,-12.57239 8.1768,-17.11241 40.9806,-35.56155 36.8741,-14.05361 -4.1064,21.51997 16.3779,96.29196 -34.8389,99.35075 -51.2048,3.07085 -24.5909,-39.94502 -77.8429,-25.60238 -53.264,14.33059 -19.5209,67.60668 -19.5209,67.60668 0,0 36.9344,89.12666 24.639,97.31556 -12.2954,8.1889 93.2091,12.2954 87.0674,-57.35849"
           id="path4215-0" />
        <path
           style="fill:none;stroke:#000000;stroke-width:5;stroke-miterlimit:10;stroke-dasharray:none"
           inkscape:connector-curvature="0"
           stroke-miterlimit="10"
           d="m -1376.986,1127.0154 c 0,0 -73.929,20.0508 -50.3859,-31.9127 1.0598,-35.5856 -31.7441,-26.349 15.3663,-69.3649"
           id="path4217-2" />
        <path
           style="fill:none;stroke:#000000;stroke-width:5;stroke-miterlimit:10;stroke-dasharray:none"
           inkscape:connector-curvature="0"
           stroke-miterlimit="10"
           d="m -1768.2709,1094.1194 c 0,0 39.9571,-0.9875 50.1931,29.745 10.2363,30.7325 73.7364,-12.2833 69.642,-23.5431 -4.0944,-11.2838 25.6143,-53.264 25.6143,-53.264 0,0 56.335,0.2529 47.1105,25.217 -9.2127,24.9641 -18.4372,18.6177 -18.4372,18.6177 0,0 36.0071,124.1584 64.1023,81.1184 28.0952,-43.0159 -6.2019,99.3628 -26.4454,98.3392 -20.2435,-1.0236 -44.8222,-21.0503 -47.9051,-56.6239"
           id="path4219-1" />
        <path
           style="fill:none;stroke:#000000;stroke-width:10;stroke-miterlimit:10;stroke-dasharray:none"
           inkscape:connector-curvature="0"
           stroke-miterlimit="10"
           d="m -1685.6593,1233.4634 c 0,0 42.3415,11.2838 64.8851,72.7368 22.5436,61.4529 119.8712,24.5787 124.4594,19.4607 4.6003,-5.1301 38.4156,32.7677 27.1438,44.0395 -11.2717,11.2718 40.9566,62.4765 63.5002,32.7797"
           id="path4221-9" />
        <path
           style="fill:none;stroke:#000000;stroke-width:10;stroke-miterlimit:10;stroke-dasharray:none"
           inkscape:connector-curvature="0"
           stroke-miterlimit="10"
           d="m -1719.1133,1327.7081 c 0,0 2.3843,-6.226 33.454,-5.1662 31.0697,1.0597 31.0817,1.0597 31.0817,1.0597 0,0 17.3533,3.0708 10.7299,-10.2482 -6.6233,-13.319 23.0735,-7.1653 23.0735,-7.1653"
           id="path4223-2" />
        <path
           style="fill:none;stroke:#000000;stroke-width:5;stroke-miterlimit:10;stroke-dasharray:none"
           inkscape:connector-curvature="0"
           stroke-miterlimit="10"
           d="m -1350.2282,1557.5614 c 0,0 -43.5457,-6.1537 -50.711,-21.508 -7.1773,-15.3662 -9.1282,-53.276 -34.273,-66.583 -25.1448,-13.307 -16.6066,-34.0924 -16.6066,-34.0924"
           id="path4225-0" />
        <path
           style="fill:none;stroke:#000000;stroke-width:10;stroke-miterlimit:10;stroke-dasharray:none"
           inkscape:connector-curvature="0"
           stroke-miterlimit="10"
           d="m -1452.9519,1442.3833 c 0,0 -66.5589,-19.4607 -105.4803,-55.3113 -38.9094,-35.8626 0,-37.9098 0,-37.9098"
           id="path4227-8" />
        <path
           style="fill:none;stroke:#000000;stroke-width:10;stroke-miterlimit:10;stroke-dasharray:none"
           inkscape:connector-curvature="0"
           stroke-miterlimit="10"
           d="m -1570.4646,1384.5084 -21.508,54.5526 c 0,0 8.189,24.6029 17.4015,28.6973 9.2125,4.0945 150.6518,125.3506 175.7244,51.9635 8.5261,-24.928 43.4855,42.2692 72.1708,26.8909"
           id="path4229-2" />
        <path
           style="fill:none;stroke:#000000;stroke-width:10;stroke-miterlimit:10;stroke-dasharray:none"
           inkscape:connector-curvature="0"
           stroke-miterlimit="10"
           d="m -1568.5337,1520.28 c 0,0 -1.5535,-22.363 -24.0248,-52.2645"
           id="path4231-4" />
        <path
           style="fill:none;stroke:#000000;stroke-width:10;stroke-miterlimit:10;stroke-dasharray:none"
           inkscape:connector-curvature="0"
           stroke-miterlimit="10"
           d="m -1620.7742,1447.5673 c 0,0 -7.1652,30.7325 -40.9686,18.4371"
           id="path4233-2" />
        <path
           style="fill:none;stroke:#000000;stroke-width:10;stroke-miterlimit:10;stroke-dasharray:none"
           inkscape:connector-curvature="0"
           stroke-miterlimit="10"
           d="m -1638.1757,1418.87 c 0,0 -28.3601,19.4727 -47.4716,11.2838"
           id="path4235-0" />
        <path
           style="fill:none;stroke:#000000;stroke-width:10;stroke-miterlimit:10;stroke-dasharray:none"
           inkscape:connector-curvature="0"
           stroke-miterlimit="10"
           d="m -1695.5461,1179.1757 c 0,0 -45.0632,15.3542 -40.9687,54.2877 4.0945,38.9334 50.8676,55.3233 50.8676,55.3233"
           id="path4237-7" />
        <path
           style="fill:none;stroke:#000000;stroke-width:10;stroke-miterlimit:10;stroke-dasharray:none"
           inkscape:connector-curvature="0"
           stroke-miterlimit="10"
           d="m -1733.8534,1244.8676 c 0,0 -1.6257,-19.1476 -27.2522,-15.7877"
           id="path4239-6" />
        <path
           style="fill:none;stroke:#000000;stroke-width:5;stroke-miterlimit:10;stroke-dasharray:none"
           inkscape:connector-curvature="0"
           stroke-miterlimit="10"
           d="m -1519.4244,607.60182 c 0,0 -10.3083,38.92141 0,51.20477"
           id="path4241-5" />
        <path
           style="fill:none;stroke:#000000;stroke-width:5;stroke-miterlimit:10;stroke-dasharray:none"
           inkscape:connector-curvature="0"
           stroke-miterlimit="10"
           d="m -1381.3073,839.70284 c 0,0 -71.7734,-10.23614 -65.5956,83.99655"
           id="path4243-1" />
        <path
           style="fill:none;stroke:#000000;stroke-width:5;stroke-miterlimit:10;stroke-dasharray:none"
           inkscape:connector-curvature="0"
           stroke-miterlimit="10"
           d="m -1457.0144,835.90383 c 0,0 -4.9374,-20.36389 -24.3861,-20.36389"
           id="path4245-0" />
        <path
           style="fill:none;stroke:#000000;stroke-width:10;stroke-miterlimit:10;stroke-dasharray:none"
           inkscape:connector-curvature="0"
           stroke-miterlimit="10"
           d="m -1691.4518,952.80054 c 0,0 -29.7088,37.3318 -27.6615,51.96346 2.0472,14.6316 -28.3602,-5.86471 -28.3602,-5.86471"
           id="path4247-5" />
        <path
           style="fill:none;stroke:#000000;stroke-width:10;stroke-miterlimit:10;stroke-dasharray:none"
           inkscape:connector-curvature="0"
           stroke-miterlimit="10"
           d="m -1710.9846,981.41356 c 0,0 30.8046,32.43044 36.9464,35.18824 6.1416,2.7818 -29.6968,24.1091 -22.5315,48.2664"
           id="path4249-4" />
        <path
           style="fill:none;stroke:#000000;stroke-width:5;stroke-miterlimit:10;stroke-dasharray:none"
           inkscape:connector-curvature="0"
           stroke-miterlimit="10"
           d="m -1372.879,1418.87 c 0,0 -79.2638,-134.1778 -80.0827,-130.0833 -0.8189,4.0944 -63.151,-81.9493 -77.06,20.4843"
           id="path4251-6" />
        <path
           style="fill:none;stroke:#000000;stroke-width:5;stroke-miterlimit:10;stroke-dasharray:none"
           inkscape:connector-curvature="0"
           stroke-miterlimit="10"
           d="m -1534.1403,983.13564 c 0.8309,39.35496 -26.5537,110.08056 28.2155,102.69856"
           id="path4253-1" />
        <path
           style="fill:none;stroke:#000000;stroke-width:5;stroke-miterlimit:10;stroke-dasharray:none"
           inkscape:connector-curvature="0"
           stroke-miterlimit="10"
           d="m -1428.8526,540.10351 c 0,0 71.2074,14.23426 -90.5718,51.10844"
           id="path4255-1" />
        <path
           style="fill:none;stroke:#000000;stroke-width:5;stroke-miterlimit:10;stroke-dasharray:none"
           inkscape:connector-curvature="0"
           stroke-miterlimit="10"
           d="m -1415.9338,696.82261 c 0,0 24.061,2.78182 6.3946,21.50793 -17.6543,18.73816 40.9686,14.12588 23.9525,31.02153"
           id="path4257-5" />
        <path
           sodipodi:nodetypes="ccc"
           inkscape:connector-curvature="0"
           id="path4598"
           d="m -1336.52,1553.6662 c -353.6367,310.4843 -12.936,457.7433 11.3188,15.0919 -40.7176,380.1717 339.03831,306.7845 -11.3188,-15.0919 z"
           style="fill:none;fill-rule:evenodd;stroke:#000000;stroke-width:20;stroke-linecap:butt;stroke-linejoin:miter;stroke-miterlimit:4;stroke-dasharray:none;stroke-opacity:1" />
        <path
           sodipodi:nodetypes="cc"
           inkscape:connector-curvature="0"
           id="path4600"
           d="m -1327.4862,1556.653 c -45.8257,126.0717 -200.074,319.1735 -167.1591,421.3133"
           style="fill:none;fill-rule:evenodd;stroke:#000000;stroke-width:15.73382378;stroke-linecap:butt;stroke-linejoin:miter;stroke-miterlimit:4;stroke-dasharray:none;stroke-opacity:1" />
        <path
           style="fill:none;fill-rule:evenodd;stroke:#000000;stroke-width:15.73382378;stroke-linecap:butt;stroke-linejoin:miter;stroke-miterlimit:4;stroke-dasharray:none;stroke-opacity:1"
           d="m -1155.4238,1977.7214 c -45.8258,-126.0717 -200.074,-319.1735 -167.1591,-421.3133"
           id="path4602"
           inkscape:connector-curvature="0"
           sodipodi:nodetypes="cc" />
        <path
           sodipodi:nodetypes="cccccccccc"
           inkscape:connector-curvature="0"
           id="path4661"
           d="m -1328.3507,569.50929 c 57.1767,81.46744 14.1943,63.35013 -49.884,100.34569 123.4358,61.09536 93.5643,60.1978 -12.9978,121.72143 149.0818,68.84596 96.403,81.9227 -5.2434,183.56912 117.2265,75.26957 83.424,74.09307 4.2273,170.23037 26.3501,10.775 52.7001,21.5499 79.0502,32.3249 -84.8505,82.6975 -110.7556,79.3952 -7.1605,139.2058 -12.1343,45.2859 -24.2687,90.5718 -36.403,135.8577 89.0782,-12.6033 45.6813,44.8758 28.3616,109.5135 l -2.9808,-0.7987"
           style="fill:none;fill-rule:evenodd;stroke:#000000;stroke-width:20;stroke-linecap:round;stroke-linejoin:round;stroke-miterlimit:4;stroke-dasharray:none;stroke-opacity:1" />
      </g>
    </g>
  </g>
</svg>
