<?xml version="1.0" encoding="UTF-8" standalone="no"?>
<!-- Created with Inkscape (http://www.inkscape.org/) -->

<svg
   xmlns:dc="http://purl.org/dc/elements/1.1/"
   xmlns:cc="http://creativecommons.org/ns#"
   xmlns:rdf="http://www.w3.org/1999/02/22-rdf-syntax-ns#"
   xmlns:svg="http://www.w3.org/2000/svg"
   xmlns="http://www.w3.org/2000/svg"
   xmlns:xlink="http://www.w3.org/1999/xlink"
   xmlns:sodipodi="http://sodipodi.sourceforge.net/DTD/sodipodi-0.dtd"
   xmlns:inkscape="http://www.inkscape.org/namespaces/inkscape"
   width="303.84518mm"
   height="303.84518mm"
   viewBox="0 0 1076.6168 1076.6168"
   id="svg2"
   version="1.1"
   inkscape:version="0.91 r13725"
   sodipodi:docname="we_are_funny.svg">
  <defs
     id="defs4">
    <linearGradient
       inkscape:collect="always"
       xlink:href="#linearGradient4521"
       id="linearGradient4527"
       x1="-3238.8621"
       y1="665.2699"
       x2="-3025.8633"
       y2="665.2699"
       gradientUnits="userSpaceOnUse" />
    <linearGradient
       inkscape:collect="always"
       id="linearGradient4521">
      <stop
         style="stop-color:#333333;stop-opacity:1;"
         offset="0"
         id="stop4523" />
      <stop
         style="stop-color:#333333;stop-opacity:0;"
         offset="1"
         id="stop4525" />
    </linearGradient>
  </defs>
  <sodipodi:namedview
     id="base"
     pagecolor="#ffffff"
     bordercolor="#666666"
     borderopacity="1.0"
     inkscape:pageopacity="0.0"
     inkscape:pageshadow="2"
     inkscape:zoom="0.30671905"
     inkscape:cx="76.78336"
     inkscape:cy="372.29004"
     inkscape:document-units="px"
     inkscape:current-layer="layer1"
     showgrid="false"
     inkscape:window-width="1920"
     inkscape:window-height="1009"
     inkscape:window-x="0"
     inkscape:window-y="21"
     inkscape:window-maximized="1"
     showguides="false"
     inkscape:guide-bbox="true"
     fit-margin-top="0"
     fit-margin-left="0"
     fit-margin-right="0"
     fit-margin-bottom="0">
    <sodipodi:guide
       position="536.87982,-433.1201"
       orientation="1,0"
       id="guide4807" />
  </sodipodi:namedview>
  <metadata
     id="metadata7">
    <rdf:RDF>
      <cc:Work
         rdf:about="">
        <dc:format>image/svg+xml</dc:format>
        <dc:type
           rdf:resource="http://purl.org/dc/dcmitype/StillImage" />
        <dc:title></dc:title>
      </cc:Work>
    </rdf:RDF>
  </metadata>
  <g
     inkscape:label="Layer 1"
     inkscape:groupmode="layer"
     id="layer1"
     transform="translate(2356.8798,-516.911)">
    <g
       id="g4471"
       style="stroke:#ffffff"
       transform="translate(2,2)" />
    <g
       id="g4503" />
    <g
       transform="matrix(2.9935897,0,0,2.9935897,7708.272,-961.49444)"
       id="g4591">
      <circle
         r="179.82036"
         cy="673.67743"
         cx="-3182.4146"
         id="path4455"
         style="opacity:1;fill:#000000;fill-opacity:1;stroke:none;stroke-width:10;stroke-linecap:round;stroke-linejoin:round;stroke-miterlimit:4;stroke-dasharray:none;stroke-dashoffset:0;stroke-opacity:1" />
      <path
         inkscape:connector-curvature="0"
         id="path4495"
         d="m -3200.1888,516.34226 c -13.1471,1.36211 -25.8244,4.31722 -37.8444,8.63457 l 21.7034,56.59141 11.0849,2.7226 0.8945,-19.83617 7.5064,-4.62063 0.4281,-7.51441 7.7398,-14.53873 -5.4062,-11.04603 -6.1065,-10.39261 z m 85.2955,14.98214 -4.6284,2.56702 -6.2231,15.3633 -7.5068,5.83419 -0.3903,12.91296 4.1616,2.45033 8.7124,-4.97849 4.2006,13.30188 7.4287,-2.91707 5.0175,-13.30188 -5.0175,-5.40632 4.5898,-9.95698 5.3672,-6.65098 0.8945,0.1167 c -5.329,-3.4252 -10.8527,-6.57459 -16.6078,-9.33466 z m 18.6773,10.6493 -2.7227,6.88433 -3.5004,2.48924 1.2756,3.15043 -0.2628,0.54453 0.4668,0.0398 3.0647,7.46774 8.7514,-2.48925 2.9947,3.53939 -9.6846,3.15042 2.1001,7.89557 -6.2617,-2.13916 -4.5507,11.6683 -16.2192,-0.42007 -2.917,-8.28448 -3.7338,4.97849 1.2446,5.40632 -5.8344,0.42783 -7.0396,9.52914 -12.913,4.1617 3.3448,7.07877 5.3676,8.71235 -16.997,-1.24462 0.8169,16.64683 13.3017,2.10032 8.7124,-13.76866 12.5318,-6.22311 5.3676,6.22311 7.4678,10.03479 5.4448,-6.30093 -10.4233,-7.03986 -0.4282,-6.65098 4.9785,2.48925 8.3236,6.68985 -0.3903,6.61207 6.2231,7.89556 2.917,-9.99589 3.3452,1.67249 4.5507,7.92667 14.0796,2.34144 -2.2945,7.70109 -5.29,3.15046 -20.4193,-5.21184 -5.1342,7.19547 -13.3408,-8.75126 -2.0615,-8.67344 -32.8656,5.60079 -16.9579,20.57513 -3.0727,27.69286 17.4633,16.95796 31.349,-2.06918 9.2181,28.78964 -3.5781,16.41347 14.8964,35.93066 16.9579,-3.06488 16.9189,-31.85455 9.2182,-7.20323 -2.5283,-22.05315 16.4525,-14.88878 5.1343,-17.977 -16.4526,7.70885 -16.8101,-38.46658 3.4228,-0.5834 16.4521,32.36017 31.7847,-18.94159 0,-0.1167 -10.7349,-8.12891 -8.2145,4.08391 -5.1262,-12.32956 3.5706,-2.0225 7.1953,6.14533 12.3685,2.29476 c -2.0232,-16.60823 -6.6138,-32.3976 -13.3407,-47.06224 l 0,2.41142 -5.0175,2.09252 4.2006,6.23092 2.0225,12.91296 -11.5908,-0.86347 2.0225,-7.92671 -4.5503,-11.59051 11.4736,-6.3009 c -12.5259,-25.74873 -31.8157,-47.64674 -55.5332,-63.36682 z m -166.585,0.47451 -11.3884,1.20575 c -28.8593,19.91395 -50.8614,49.04463 -61.6787,83.11739 l 0,3.06488 9.1246,16.96572 14.99,23.45334 18.2882,6.49537 7.8178,3.92835 9.1166,11.74612 6.3789,-0.97236 -7.0165,11.43495 5.8495,23.45337 12.4231,11.03822 -15.0366,60.7142 4.4571,11.0849 c 1.633,1.01163 3.2827,2.06197 4.9554,3.03377 l 10.8205,2.80042 -9.086,-9.76249 12.3606,-23.49225 26.7206,-22.79215 1.9838,-10.46259 13.0217,-1.94471 13.0684,-26.75937 -22.823,-11.04603 -2.645,-10.46259 -17.5804,-13.02965 -26.0901,-2.64481 -3.8896,6.34757 -5.274,-1.75024 -2.5828,-9.76253 -7.8178,-0.54449 3.2439,-9.25688 -6.511,-0.66122 -6.5342,5.25075 -4.5583,-6.57316 3.9127,-11.04603 17.6191,-2.6059 3.2284,9.10127 4.5894,-0.62231 0,-8.47896 12.3841,-16.958 15.6276,-8.47896 20.225,-9.14018 -14.3595,-31.97125 -6.5342,3.92835 -5.1732,-14.35206 -12.4152,0.66122 -3.2125,25.43696 -4.5818,0.66118 -18.9258,-20.22508 3.9047,-10.46259 19.6029,-3.88947 0,-24.77574 z m 112.9416,5.63971 -6.6119,4.58176 0.3903,5.79524 -6.2231,7.51441 -0.4277,7.88779 7.5068,0 3.3057,-9.98808 0,14.93546 10.3851,-4.55065 2.917,-4.58953 -11.2406,-21.5864 z m 103.1012,183.26276 -11.2326,8.72012 -0.4278,16.64683 6.682,2.87039 6.6512,-19.95282 -1.6728,-8.28452 z"
         style="opacity:1;fill:url(#linearGradient4527);fill-opacity:1;stroke:none;stroke-width:8.34499931;stroke-linecap:round;stroke-linejoin:round;stroke-miterlimit:4;stroke-dasharray:none;stroke-dashoffset:0;stroke-opacity:1" />
      <g
         transform="translate(2,2)"
         style="stroke:#000000"
         id="g4513">
        <path
           transform="matrix(0,-1,-1,0,-2621.3832,-2623.5752)"
           d="m -3245.0725,625.93115 c -2.5548,0.68456 -2.1832,-3.10609 -1.1378,-4.24625 2.8331,-3.08978 7.7016,-1.03862 9.6303,1.97068 3.4501,5.38294 0.2132,12.31996 -5.0792,15.01434 -7.7667,3.95411 -17.0138,-0.60116 -20.3983,-8.18763 -4.5111,-10.11156 1.4087,-21.73616 11.2961,-25.78242 12.4422,-5.09181 26.4724,2.21237 31.1664,14.40457 5.6851,14.7664 -3.0136,31.21675 -17.513,36.55051 -17.0871,6.28565 -35.966,-3.81337 -41.9346,-20.62152 -5.2839,-14.88009 0.2064,-31.73066 12.5893,-41.30816"
           sodipodi:t0="0"
           sodipodi:argument="-22.252949"
           sodipodi:radius="38.656937"
           sodipodi:revolution="2.1983907"
           sodipodi:expansion="1"
           sodipodi:cy="625.93115"
           sodipodi:cx="-3245.0725"
           id="path4515"
           style="fill:none;fill-rule:evenodd;stroke:#000000;stroke-width:10;stroke-linecap:round;stroke-linejoin:miter;stroke-miterlimit:4;stroke-dasharray:none;stroke-opacity:1"
           sodipodi:type="spiral" />
        <path
           transform="matrix(0,1,1,0,-2492.024,-2489.9543)"
           sodipodi:type="spiral"
           style="fill:none;fill-rule:evenodd;stroke:#000000;stroke-width:10;stroke-linecap:round;stroke-linejoin:miter;stroke-miterlimit:4;stroke-dasharray:none;stroke-opacity:1"
           id="path4517"
           sodipodi:cx="3123.8118"
           sodipodi:cy="-625.64526"
           sodipodi:expansion="1"
           sodipodi:revolution="2.1983907"
           sodipodi:radius="38.656937"
           sodipodi:argument="-22.252949"
           sodipodi:t0="0"
           d="m 3123.8118,-625.64526 c -2.5548,0.68456 -2.1833,-3.10609 -1.1378,-4.24626 2.8331,-3.08978 7.7015,-1.03861 9.6303,1.97069 3.45,5.38293 0.2132,12.31996 -5.0792,15.01434 -7.7668,3.9541 -17.0138,-0.60117 -20.3984,-8.18763 -4.511,-10.11157 1.4088,-21.73617 11.2961,-25.78243 12.4423,-5.0918 26.4725,2.21237 31.1665,14.40458 5.6851,14.76639 -3.0136,31.21674 -17.513,36.5505 -17.0871,6.28566 -35.966,-3.81337 -41.9346,-20.62152 -5.2839,-14.88009 0.2064,-31.73066 12.5892,-41.30815" />
        <path
           sodipodi:nodetypes="ccc"
           inkscape:connector-curvature="0"
           id="path4519"
           d="m -3346.4491,694.6213 c 54.6782,0 109.3563,60 164.0345,60 54.6782,0 109.3563,-60 164.0345,-60"
           style="fill:none;fill-rule:evenodd;stroke:#000000;stroke-width:10;stroke-linecap:round;stroke-linejoin:miter;stroke-miterlimit:4;stroke-dasharray:none;stroke-opacity:1" />
      </g>
      <g
         id="g4508">
        <path
           sodipodi:type="spiral"
           style="fill:none;fill-rule:evenodd;stroke:#ffffff;stroke-width:10;stroke-linecap:round;stroke-linejoin:miter;stroke-miterlimit:4;stroke-dasharray:none;stroke-opacity:1"
           id="path4457"
           sodipodi:cx="-3245.0725"
           sodipodi:cy="625.93115"
           sodipodi:expansion="1"
           sodipodi:revolution="2.1983907"
           sodipodi:radius="38.656937"
           sodipodi:argument="-22.252949"
           sodipodi:t0="0"
           d="m -3245.0725,625.93115 c -2.5548,0.68456 -2.1832,-3.10609 -1.1378,-4.24625 2.8331,-3.08978 7.7016,-1.03862 9.6303,1.97068 3.4501,5.38294 0.2132,12.31996 -5.0792,15.01434 -7.7667,3.95411 -17.0138,-0.60116 -20.3983,-8.18763 -4.5111,-10.11156 1.4087,-21.73616 11.2961,-25.78242 12.4422,-5.09181 26.4724,2.21237 31.1664,14.40457 5.6851,14.7664 -3.0136,31.21675 -17.513,36.55051 -17.0871,6.28565 -35.966,-3.81337 -41.9346,-20.62152 -5.2839,-14.88009 0.2064,-31.73066 12.5893,-41.30816"
           transform="matrix(0,-1,-1,0,-2621.3832,-2623.5752)" />
        <path
           d="m 3123.8118,-625.64526 c -2.5548,0.68456 -2.1833,-3.10609 -1.1378,-4.24626 2.8331,-3.08978 7.7015,-1.03861 9.6303,1.97069 3.45,5.38293 0.2132,12.31996 -5.0792,15.01434 -7.7668,3.9541 -17.0138,-0.60117 -20.3984,-8.18763 -4.511,-10.11157 1.4088,-21.73617 11.2961,-25.78243 12.4423,-5.0918 26.4725,2.21237 31.1665,14.40458 5.6851,14.76639 -3.0136,31.21674 -17.513,36.5505 -17.0871,6.28566 -35.966,-3.81337 -41.9346,-20.62152 -5.2839,-14.88009 0.2064,-31.73066 12.5892,-41.30815"
           sodipodi:t0="0"
           sodipodi:argument="-22.252949"
           sodipodi:radius="38.656937"
           sodipodi:revolution="2.1983907"
           sodipodi:expansion="1"
           sodipodi:cy="-625.64526"
           sodipodi:cx="3123.8118"
           id="path4459"
           style="fill:none;fill-rule:evenodd;stroke:#ffffff;stroke-width:10;stroke-linecap:round;stroke-linejoin:miter;stroke-miterlimit:4;stroke-dasharray:none;stroke-opacity:1"
           sodipodi:type="spiral"
           transform="matrix(0,1,1,0,-2492.024,-2489.9543)" />
        <path
           style="fill:none;fill-rule:evenodd;stroke:#ffffff;stroke-width:10;stroke-linecap:round;stroke-linejoin:miter;stroke-miterlimit:4;stroke-dasharray:none;stroke-opacity:1"
           d="m -3346.4491,694.6213 c 54.6782,0 109.3563,60 164.0345,60 54.6782,0 109.3563,-60 164.0345,-60"
           id="path4476"
           inkscape:connector-curvature="0"
           sodipodi:nodetypes="ccc" />
      </g>
    </g>
  </g>
</svg>
