<?xml version="1.0" encoding="UTF-8" standalone="no"?>
<!-- Created with Inkscape (http://www.inkscape.org/) -->

<svg
   xmlns:dc="http://purl.org/dc/elements/1.1/"
   xmlns:cc="http://creativecommons.org/ns#"
   xmlns:rdf="http://www.w3.org/1999/02/22-rdf-syntax-ns#"
   xmlns:svg="http://www.w3.org/2000/svg"
   xmlns="http://www.w3.org/2000/svg"
   xmlns:sodipodi="http://sodipodi.sourceforge.net/DTD/sodipodi-0.dtd"
   xmlns:inkscape="http://www.inkscape.org/namespaces/inkscape"
   width="81.141739mm"
   height="24.120764mm"
   viewBox="0 0 287.51011 85.467273"
   id="svg6339"
   version="1.1"
   inkscape:version="0.91 r13725"
   sodipodi:docname="graphice_comics_page.svg">
  <defs
     id="defs6341" />
  <sodipodi:namedview
     id="base"
     pagecolor="#ffffff"
     bordercolor="#666666"
     borderopacity="1.0"
     inkscape:pageopacity="0.0"
     inkscape:pageshadow="2"
     inkscape:zoom="0.35"
     inkscape:cx="215.99625"
     inkscape:cy="387.23341"
     inkscape:document-units="px"
     inkscape:current-layer="layer1"
     showgrid="false"
     fit-margin-top="0"
     fit-margin-left="0"
     fit-margin-right="0"
     fit-margin-bottom="0"
     inkscape:window-width="1920"
     inkscape:window-height="1009"
     inkscape:window-x="0"
     inkscape:window-y="21"
     inkscape:window-maximized="1" />
  <metadata
     id="metadata6344">
    <rdf:RDF>
      <cc:Work
         rdf:about="">
        <dc:format>image/svg+xml</dc:format>
        <dc:type
           rdf:resource="http://purl.org/dc/dcmitype/StillImage" />
        <dc:title></dc:title>
      </cc:Work>
    </rdf:RDF>
  </metadata>
  <g
     inkscape:label="Layer 1"
     inkscape:groupmode="layer"
     id="layer1"
     transform="translate(268.1391,-834.12835)">
    <g
       id="g9582"
       transform="translate(-3949.0767,-3071.1601)">
      <g
         transform="translate(0,1.1682573e-4)"
         id="g9455">
        <path
           inkscape:connector-curvature="0"
           id="path6060-4"
           style="font-style:normal;font-variant:normal;font-weight:900;font-stretch:normal;font-size:medium;line-height:125%;font-family:'Alegreya SC';-inkscape-font-specification:'Alegreya SC Heavy';text-align:start;letter-spacing:0px;word-spacing:0px;writing-mode:lr-tb;text-anchor:start;fill:#000000;fill-opacity:1;stroke:none;stroke-width:1px;stroke-linecap:butt;stroke-linejoin:miter;stroke-opacity:1"
           d="m 3711.3051,3936.164 c 0,0.061 -3.2667,0.242 -6.2308,0.242 -2.4802,0 -4.9605,0.061 -7.8037,0.061 l -0.6654,4.779 0.5444,0.7864 c 0,0 0.6655,-0.061 1.3915,-0.061 1.1493,0 1.4518,0.4235 1.4518,1.8148 l 0,2.4803 c 0,0 -0.5444,0.3629 -2.0568,0.3629 -3.2666,0 -4.4161,-2.6618 -4.4161,-9.6184 0,-5.9283 0.9075,-7.5012 4.5975,-7.5012 1.8754,0 2.3594,0.6655 2.3594,2.8432 0,1.5123 -0.1211,2.6012 -0.1211,2.6012 l 8.4085,-0.4839 c 0.3026,-5.6864 1.452,-9.7395 1.452,-9.7395 l -0.605,-1.0889 c 0,0 -5.4444,-1.2098 -10.2234,-1.2098 -11.9777,0 -18.2084,5.5049 -18.2084,16.2727 0,9.679 5.6863,15.2444 15.3652,15.2444 8.3481,0 12.2196,-1.3915 12.2196,-1.3915 l 0.6655,-0.8469 c -0.2419,-1.0284 -0.3629,-2.0568 -0.3629,-3.9925 0,-6.4122 0.3024,-7.2592 2.7825,-8.5296 l -0.5443,-3.0246 z" />
        <path
           inkscape:connector-curvature="0"
           id="path6062-9"
           style="font-style:normal;font-variant:normal;font-weight:900;font-stretch:normal;font-size:medium;line-height:125%;font-family:'Alegreya SC';-inkscape-font-specification:'Alegreya SC Heavy';text-align:start;letter-spacing:0px;word-spacing:0px;writing-mode:lr-tb;text-anchor:start;fill:#000000;fill-opacity:1;stroke:none;stroke-width:1px;stroke-linecap:butt;stroke-linejoin:miter;stroke-opacity:1"
           d="m 3728.7846,3943.1208 2.7827,6.8357 c 1.2705,3.2061 2.8432,4.2344 5.8074,4.2344 l 8.2271,-0.4838 0.4839,-3.7506 -0.6049,-0.847 c -1.2703,0 -3.0246,-1.5728 -4.7185,-4.1741 l -2.7826,-4.2949 c 3.8715,-2.2383 5.8678,-5.2024 5.8678,-8.8925 0,-6.1703 -4.7185,-9.0741 -14.3975,-9.0741 0,0 -7.1985,0.3026 -9.6788,0.3026 -2.0567,0 -7.3197,-0.061 -7.3197,-0.061 l -0.6049,4.0531 0.5444,0.6048 c 0,0 1.0284,-0.061 1.8147,-0.061 0.9075,0 1.21,0.484 1.21,1.9359 l 0,15.7283 c 0,2.6011 -0.7864,3.6294 -3.2062,4.053 l -0.4234,4.7184 c 0,0 5.2024,-0.4839 9.0739,-0.4839 2.0568,0 8.59,0.1814 8.59,0.1814 l 0.5445,-4.295 -0.3025,-0.4234 c -3.2061,-0.1815 -3.569,-0.484 -3.569,-3.2666 l 0,-2.5408 2.6616,0 z m -2.4801,-6.5333 c 0.06,-2.2384 0.1209,-4.416 0.3024,-6.2914 0.061,-0.9074 0.1815,-1.0284 0.8469,-1.0284 3.6296,0 5.2025,1.0284 5.2025,3.4483 0,2.1776 -0.1815,3.327 -2.7222,4.3554 l -3.6296,-0.4839 z" />
        <path
           inkscape:connector-curvature="0"
           id="path6064-9"
           style="font-style:normal;font-variant:normal;font-weight:900;font-stretch:normal;font-size:medium;line-height:125%;font-family:'Alegreya SC';-inkscape-font-specification:'Alegreya SC Heavy';text-align:start;letter-spacing:0px;word-spacing:0px;writing-mode:lr-tb;text-anchor:start;fill:#000000;fill-opacity:1;stroke:none;stroke-width:1px;stroke-linecap:butt;stroke-linejoin:miter;stroke-opacity:1"
           d="m 3776.3305,3945.9034 c -1.1494,-4.053 -6.0493,-22.806 -6.0493,-22.806 l -0.7865,-0.6654 -14.5788,0.7864 -7.7432,23.5319 c -0.4234,1.2099 -1.2703,2.0567 -2.3592,2.3592 l -0.363,4.4161 6.8358,0 c 3.0246,0 7.8641,0.1209 7.8641,0.1209 l 0.4234,-4.2345 -0.4839,-0.5445 -1.0889,0 c -1.2703,0 -1.3308,-0.06 -1.3308,-0.7863 0,-0.121 0,-0.4235 0.061,-0.8469 l 0.363,-1.5729 c 1.3307,-0.061 2.7826,-0.1815 3.811,-0.1815 0.9074,0 2.2988,0 3.69,0.061 l 0.121,1.2704 c 0,0.242 0.061,0.4234 0.061,0.5444 0,1.2704 -0.061,1.21 -3.0851,1.5729 l -0.3024,4.3555 0.4234,0.4234 c 0,0 5.0209,-0.1814 9.9208,-0.1814 2.8432,0 7.2593,0.061 7.2593,0.061 l 0.4234,-3.9926 -0.3629,-0.5443 c -1.3914,-0.121 -2.1778,-1.0284 -2.7223,-3.1458 z m -15.4863,-14.3974 1.1494,0 1.4518,7.5011 c -0.9073,0.061 -1.6938,0.061 -2.3592,0.061 l -2.2988,0 2.0568,-7.5616 z" />
        <path
           inkscape:connector-curvature="0"
           id="path6066-0"
           style="font-style:normal;font-variant:normal;font-weight:900;font-stretch:normal;font-size:medium;line-height:125%;font-family:'Alegreya SC';-inkscape-font-specification:'Alegreya SC Heavy';text-align:start;letter-spacing:0px;word-spacing:0px;writing-mode:lr-tb;text-anchor:start;fill:#000000;fill-opacity:1;stroke:none;stroke-width:1px;stroke-linecap:butt;stroke-linejoin:miter;stroke-opacity:1"
           d="m 3780.5612,3926.9691 0.5444,0.6048 c 0,0 1.0284,-0.06 1.8149,-0.06 0.9074,0 1.2097,0.6048 1.2097,2.5406 l 0,15.1233 c 0,2.6013 -0.7862,3.6297 -3.206,3.9926 l -0.484,4.7185 c 0,0.061 7.3197,-0.4235 9.6184,-0.4235 2.1173,0 8.6506,0.1815 8.6506,0.1815 l 0.484,-4.3555 -0.242,-0.4235 c 0,0 -0.8469,0.061 -1.5124,0.061 -2.1173,0 -2.6012,-0.9075 -2.6012,-3.0853 l 0,-1.8752 4.3556,0 c 6.8356,0 12.7035,-5.2024 12.7035,-11.2517 0,-3.3878 -1.3308,-10.0419 -14.0344,-10.0419 0,0 -7.0173,0.3025 -9.3764,0.3025 l -7.3803,0 -0.5444,3.9925 z m 14.3974,10.7073 0.3629,-7.3803 c 0.061,-0.9074 0.1815,-1.0889 0.7865,-1.0889 3.2061,0 4.5974,1.1494 4.5974,3.8716 0,2.7827 -0.7863,4.3556 -2.5406,5.021 l -3.2062,-0.4234 z" />
        <path
           inkscape:connector-curvature="0"
           id="path6068-6"
           style="font-style:normal;font-variant:normal;font-weight:900;font-stretch:normal;font-size:medium;line-height:125%;font-family:'Alegreya SC';-inkscape-font-specification:'Alegreya SC Heavy';text-align:start;letter-spacing:0px;word-spacing:0px;writing-mode:lr-tb;text-anchor:start;fill:#000000;fill-opacity:1;stroke:none;stroke-width:1px;stroke-linecap:butt;stroke-linejoin:miter;stroke-opacity:1"
           d="m 3845.3758,3929.8122 c 0.121,-1.8148 0.605,-2.1778 2.9643,-2.5407 l 0.3629,-4.4766 c 0,0 -7.0777,0.1816 -9.195,0.1816 l -8.469,0 -0.4235,3.8111 0.484,0.7258 1.3309,0 c 1.3913,0 1.7541,0.484 1.7541,2.3593 l 0,5.0209 c -0.7257,0.061 -1.5726,0.121 -3.811,0.121 l -3.69,-0.1815 0.3025,-5.3234 c 0.061,-1.3913 0.4839,-1.7543 2.5406,-2.1172 l 0.363,-4.5976 c 0,0 -7.5011,0.1816 -10.5863,0.1816 l -6.5937,0 -0.4234,3.8111 0.4839,0.7258 1.2702,0 c 1.3914,0 1.7544,0.4235 1.7544,2.3593 l 0,15.6072 c 0,2.6618 -0.5444,3.3271 -3.1456,3.8111 l -0.4234,4.3555 c -0.061,0.061 5.2628,-0.1814 8.4084,-0.1814 2.1173,0 8.6505,0.1814 8.6505,0.1814 l 0.4235,-4.2345 -0.4235,-0.5445 c 0,0 -0.3629,0.121 -1.2098,0.121 -1.2703,0 -1.5728,-0.6048 -1.5728,-3.2061 l 0,-4.053 c 0,0 4.295,-0.4234 5.3234,-0.4234 1.0889,0 2.3591,0.06 2.3591,0.06 l 0,4.3555 c 0,2.2987 -0.9678,3.2666 -3.2665,3.3271 l -0.3629,4.4765 c 0,0 6.2912,-0.061 8.6505,-0.061 4.416,0 8.8925,0.061 8.8925,0.061 l 0.4839,-4.1741 -0.4839,-0.6049 c 0,0 -0.5445,0.121 -1.2704,0.121 -1.3914,0 -1.9358,-0.7865 -1.9358,-3.0851 0,-6.4123 0.1815,-12.7641 0.4839,-15.9703 z" />
        <path
           inkscape:connector-curvature="0"
           id="path6070-1"
           style="font-style:normal;font-variant:normal;font-weight:900;font-stretch:normal;font-size:medium;line-height:125%;font-family:'Alegreya SC';-inkscape-font-specification:'Alegreya SC Heavy';text-align:start;letter-spacing:0px;word-spacing:0px;writing-mode:lr-tb;text-anchor:start;fill:#000000;fill-opacity:1;stroke:none;stroke-width:1px;stroke-linecap:butt;stroke-linejoin:miter;stroke-opacity:1"
           d="m 3864.7942,3929.8122 c 0.1815,-1.7543 0.5445,-2.1173 2.7827,-2.4197 l 0.3629,-4.5976 c 0,0 -6.8962,0.1816 -9.0134,0.1816 l -8.3482,0 -0.4234,3.8111 0.4839,0.7258 1.21,0 c 1.3913,0 1.7543,0.4235 1.7543,2.3593 l 0,15.6072 c 0,2.6013 -0.484,3.2666 -3.1458,3.8111 l -0.4233,4.3555 c 0,0 5.4443,-0.1814 8.6505,-0.1814 2.1172,0 8.6505,0.1814 8.6505,0.1814 l 0.4234,-4.2345 -0.4234,-0.5445 c 0,0 -0.4235,0.121 -1.4518,0.121 -1.2703,0 -1.5728,-0.6048 -1.5728,-3.2061 0,-6.5333 0.1815,-12.0382 0.4839,-15.9702 z" />
        <path
           inkscape:connector-curvature="0"
           id="path6072-0"
           style="font-style:normal;font-variant:normal;font-weight:900;font-stretch:normal;font-size:medium;line-height:125%;font-family:'Alegreya SC';-inkscape-font-specification:'Alegreya SC Heavy';text-align:start;letter-spacing:0px;word-spacing:0px;writing-mode:lr-tb;text-anchor:start;fill:#000000;fill-opacity:1;stroke:none;stroke-width:1px;stroke-linecap:butt;stroke-linejoin:miter;stroke-opacity:1"
           d="m 3884.4102,3953.9491 c 6.5331,0 12.0985,-1.7544 12.0985,-1.7544 l 0.7259,-0.7864 c -0.061,-4.7185 0.4839,-10.4654 0.4839,-10.4654 l -8.3479,0.5445 c -0.242,3.8111 -1.0889,5.0814 -3.3878,5.0814 -2.9036,0 -3.9925,-2.7827 -3.9925,-9.5579 0,-5.9888 0.6655,-7.4407 3.7506,-7.4407 2.2383,0 2.9642,0.8469 2.9642,3.3271 0,1.5124 -0.061,2.7223 -0.061,2.7223 l 8.4085,-0.484 c 0.3631,-5.9888 1.452,-10.4049 1.452,-10.4049 l -0.4236,-1.0889 c 0,0 -6.4727,-1.2098 -10.8282,-1.2098 -11.4938,0 -17.6036,5.5654 -17.6036,16.2727 0,9.679 5.3839,15.2444 14.7604,15.2444 z" />
        <path
           inkscape:connector-curvature="0"
           id="path6074-5"
           style="font-style:normal;font-variant:normal;font-weight:900;font-stretch:normal;font-size:medium;line-height:125%;font-family:'Alegreya SC';-inkscape-font-specification:'Alegreya SC Heavy';text-align:start;letter-spacing:0px;word-spacing:0px;writing-mode:lr-tb;text-anchor:start;fill:#000000;fill-opacity:1;stroke:none;stroke-width:1px;stroke-linecap:butt;stroke-linejoin:miter;stroke-opacity:1"
           d="m 3914.7606,3944.633 c 0,-0.9074 -0.061,-2.1172 0,-3.0851 0.9074,-0.061 2.2988,-0.2419 3.7506,-0.2419 2.2382,0 5.8678,0.1209 5.8678,0.1209 l 0.726,-5.8678 -0.6655,-0.7865 c 0,0 -3.932,0.242 -5.4444,0.242 l -3.932,0 0.242,-4.658 c 0,-0.9074 0.3025,-1.1494 1.5123,-1.1494 3.6296,0 4.537,0.484 4.537,2.4199 0,0.6048 -0.121,1.6936 -0.121,1.6936 l 7.5617,-0.4234 c 0.2419,-4.4765 1.1493,-9.6789 1.1493,-9.6789 l -0.7259,-0.7864 c -2.7827,0.3024 -9.5579,0.5445 -15.6073,0.5445 -4.7789,0 -12.28,-0.1211 -12.28,-0.1211 l -0.4839,3.9927 0.6653,0.7258 c 0,0 0.7259,-0.06 1.2704,-0.06 1.0284,0 1.2703,0.4839 1.2703,2.5406 l -0.061,15.0023 c 0,2.8432 -0.7258,3.8111 -3.1456,4.1741 l -0.4839,4.7184 c 0,0 5.6864,-0.4839 11.0703,-0.4839 8.1665,0 16.2122,0.3025 16.2122,0.3025 l 0.8468,-0.7865 c 0.4839,-5.3233 1.3913,-10.0418 1.3913,-10.0418 l -0.6654,-0.7864 -6.9567,0.4839 c -0.6049,4.0531 -1.5123,4.8395 -5.3233,4.8395 -1.9358,0 -2.1778,-0.4235 -2.1778,-2.8431 z" />
        <path
           inkscape:connector-curvature="0"
           id="path6076-9"
           style="font-style:normal;font-variant:normal;font-weight:900;font-stretch:normal;font-size:medium;line-height:125%;font-family:'Alegreya SC';-inkscape-font-specification:'Alegreya SC Heavy';text-align:start;letter-spacing:0px;word-spacing:0px;writing-mode:lr-tb;text-anchor:start;fill:#000000;fill-opacity:1;stroke:none;stroke-width:1px;stroke-linecap:butt;stroke-linejoin:miter;stroke-opacity:1"
           d="m 3705.8767,3971.9397 c 0,0 -4.9113,-7.0161 -9.1209,-14.1598 0,0 -4.2098,0.1914 -7.2074,0.1914 -4.2098,0 -8.2919,-0.2552 -8.2919,-0.2552 l -0.3189,4.401 0.7016,0.7654 c 3.3168,0.3827 3.8907,0.8291 3.8907,3.1254 l -0.6377,16.5196 c -0.063,1.9774 -0.893,2.8703 -2.9341,3.1255 l -0.574,4.8474 c 0,0 4.7199,-0.3826 8.5468,-0.3826 2.2963,0 8.4832,0.1913 8.4832,0.1913 l 0.6378,-4.5924 -0.574,-0.4464 c 0,0 -1.0205,0.1913 -1.6583,0.1913 -1.5946,0 -2.0412,-0.6379 -2.105,-2.6151 l -0.2551,-6.5696 0.893,0 c 0,0 4.3373,6.0593 9.695,14.1598 l 11.0344,-0.5741 0.7016,-24.0461 c 0.063,-2.0411 0.7654,-2.8064 2.9978,-3.1253 l 0.2552,-4.8475 c 0,0.063 -4.5924,0.1276 -7.654,0.1276 -3.0616,0 -9.2484,-0.1914 -9.2484,-0.1914 l -0.2552,4.3372 0.319,0.5741 1.5945,0 c 1.2756,0 1.5945,0.4464 1.7221,2.1686 l 0.2552,7.0799 -0.893,0 z" />
        <path
           inkscape:connector-curvature="0"
           id="path6078-3"
           style="font-style:normal;font-variant:normal;font-weight:900;font-stretch:normal;font-size:medium;line-height:125%;font-family:'Alegreya SC';-inkscape-font-specification:'Alegreya SC Heavy';text-align:start;letter-spacing:0px;word-spacing:0px;writing-mode:lr-tb;text-anchor:start;fill:#000000;fill-opacity:1;stroke:none;stroke-width:1px;stroke-linecap:butt;stroke-linejoin:miter;stroke-opacity:1"
           d="m 3734.8889,3979.466 0.3188,-14.2874 c 0.063,-1.467 0.7016,-2.2323 2.4238,-2.2961 l 0.574,-5.1026 c 0,0 -5.2302,0.1914 -7.2712,0.1914 -4.4648,0 -9.8225,-0.1276 -9.8225,-0.1276 l -0.5741,4.7837 0.1275,0.1913 c 0,0 0.9568,-0.063 1.4671,-0.063 1.2119,0 1.4669,0.4464 1.4669,2.6788 l 0,14.9252 c 0,7.335 3.8909,10.3327 13.2031,10.3327 9.4398,0 14.2236,-4.2096 14.2236,-12.3739 l 0,-13.5219 c 0,-1.0205 0.3188,-1.3393 2.4237,-2.0409 l 0.4465,-4.9113 c 0,0 -4.5924,0.1275 -7.9728,0.1275 -1.9136,0 -6.3784,-0.1275 -6.3784,-0.1275 l -0.6378,4.7837 0.1914,0.1914 c 0,0 0.574,-0.063 1.0843,-0.063 0.9568,0 1.3395,0.6378 1.2757,2.6789 0,0 0.063,11.736 0.063,14.7338 0,2.6152 -0.9567,3.6357 -3.1891,3.6357 -2.2324,0 -3.4443,-1.7859 -3.4443,-4.3374 z" />
        <path
           inkscape:connector-curvature="0"
           id="path6080-9"
           style="font-style:normal;font-variant:normal;font-weight:900;font-stretch:normal;font-size:medium;line-height:125%;font-family:'Alegreya SC';-inkscape-font-specification:'Alegreya SC Heavy';text-align:start;letter-spacing:0px;word-spacing:0px;writing-mode:lr-tb;text-anchor:start;fill:#000000;fill-opacity:1;stroke:none;stroke-width:1px;stroke-linecap:butt;stroke-linejoin:miter;stroke-opacity:1"
           d="m 3779.6922,3971.9397 c 0,0 -4.9113,-7.0161 -9.1209,-14.1598 0,0 -4.2096,0.1914 -7.2075,0.1914 -4.2096,0 -8.2917,-0.2552 -8.2917,-0.2552 l -0.3189,4.401 0.7016,0.7654 c 3.3166,0.3827 3.8907,0.8291 3.8907,3.1254 l -0.6379,16.5196 c -0.063,1.9774 -0.8929,2.8703 -2.9339,3.1255 l -0.5741,4.8474 c 0,0 4.72,-0.3826 8.5469,-0.3826 2.2962,0 8.4832,0.1913 8.4832,0.1913 l 0.6378,-4.5924 -0.574,-0.4464 c 0,0 -1.0206,0.1913 -1.6584,0.1913 -1.5946,0 -2.0411,-0.6379 -2.1049,-2.6151 l -0.2551,-6.5696 0.893,0 c 0,0 4.3372,6.0593 9.695,14.1598 l 11.0343,-0.5741 0.7017,-24.0461 c 0.063,-2.0411 0.7653,-2.8064 2.9977,-3.1253 l 0.2552,-4.8475 c 0,0.063 -4.5924,0.1276 -7.6538,0.1276 -3.0617,0 -9.2486,-0.1914 -9.2486,-0.1914 l -0.2551,4.3372 0.3189,0.5741 1.5945,0 c 1.2757,0 1.5946,0.4464 1.7222,2.1686 l 0.2551,7.0799 -0.893,0 z" />
        <path
           inkscape:connector-curvature="0"
           id="path6082-6"
           style="font-style:normal;font-variant:normal;font-weight:900;font-stretch:normal;font-size:medium;line-height:125%;font-family:'Alegreya SC';-inkscape-font-specification:'Alegreya SC Heavy';text-align:start;letter-spacing:0px;word-spacing:0px;writing-mode:lr-tb;text-anchor:start;fill:#000000;fill-opacity:1;stroke:none;stroke-width:1px;stroke-linecap:butt;stroke-linejoin:miter;stroke-opacity:1"
           d="m 3804.8136,3981.7621 c 0,2.679 -1.0205,3.5082 -5.2939,3.8271 l -0.3827,5.0388 c 0,0 7.5901,-0.5102 11.0982,-0.5102 3.0616,0 11.0982,0.3189 11.0982,0.3189 l 0.5102,-5.1026 -0.3189,-0.319 c 0,0 -1.4033,0.1914 -2.6151,0.1914 -2.041,0 -2.7426,-0.893 -2.7426,-3.4444 0,-6.2506 0.063,-11.9911 0.1913,-17.0937 2.2962,0 2.4876,1.2119 2.9341,7.2713 l 7.1436,-0.3828 c 0,0 -0.1914,-7.2713 -0.1914,-13.3943 l -0.7654,-0.7654 -6.6333,0.5741 -16.6474,0 -6.5695,-0.5741 -0.7017,0.7654 c -0.063,5.9318 -0.3826,13.7771 -0.3826,13.7771 l 7.0798,-0.3828 c 0.4464,-5.3577 0.8292,-6.8885 3.1891,-6.8885 l 0,17.0937 z" />
        <path
           inkscape:connector-curvature="0"
           id="path6084-7"
           style="font-style:normal;font-variant:normal;font-weight:900;font-stretch:normal;font-size:medium;line-height:125%;font-family:'Alegreya SC';-inkscape-font-specification:'Alegreya SC Heavy';text-align:start;letter-spacing:0px;word-spacing:0px;writing-mode:lr-tb;text-anchor:start;fill:#000000;fill-opacity:1;stroke:none;stroke-width:1px;stroke-linecap:butt;stroke-linejoin:miter;stroke-opacity:1"
           d="m 3843.3204,3965.1786 c 0.1914,-1.8496 0.5742,-2.2323 2.934,-2.5512 l 0.3827,-4.8475 c 0,0 -7.2711,0.1914 -9.5036,0.1914 l -8.802,0 -0.4465,4.0183 0.5103,0.7654 1.2756,0 c 1.467,0 1.8497,0.4464 1.8497,2.4874 l 0,16.456 c 0,2.7427 -0.5103,3.4443 -3.3167,4.0183 l -0.4464,4.5924 c 0,0 5.7404,-0.1913 9.1208,-0.1913 2.2325,0 9.121,0.1913 9.121,0.1913 l 0.4465,-4.4648 -0.4465,-0.574 c 0,0 -0.4465,0.1275 -1.5307,0.1275 -1.3395,0 -1.6584,-0.6378 -1.6584,-3.3805 0,-6.8885 0.1914,-12.6927 0.5102,-16.8387 z" />
        <path
           inkscape:connector-curvature="0"
           id="path6086-8"
           style="font-style:normal;font-variant:normal;font-weight:900;font-stretch:normal;font-size:medium;line-height:125%;font-family:'Alegreya SC';-inkscape-font-specification:'Alegreya SC Heavy';text-align:start;letter-spacing:0px;word-spacing:0px;writing-mode:lr-tb;text-anchor:start;fill:#000000;fill-opacity:1;stroke:none;stroke-width:1px;stroke-linecap:butt;stroke-linejoin:miter;stroke-opacity:1"
           d="m 3881.2243,3982.1449 c -1.2118,-4.2735 -6.3782,-24.0461 -6.3782,-24.0461 l -0.8293,-0.7016 -15.3715,0.8292 -8.1643,24.8115 c -0.4465,1.2756 -1.3394,2.1686 -2.4874,2.4875 l -0.3828,4.6561 7.2074,0 c 3.1892,0 8.2919,0.1276 8.2919,0.1276 l 0.4463,-4.4648 -0.5101,-0.574 -1.1481,0 c -1.3394,0 -1.4032,-0.063 -1.4032,-0.8292 0,-0.1276 0,-0.4466 0.063,-0.893 l 0.3828,-1.6584 c 1.4031,-0.063 2.9339,-0.1913 4.0182,-0.1913 0.9568,0 2.4237,0 3.8908,0.063 l 0.1276,1.3395 c 0,0.2552 0.063,0.4465 0.063,0.5741 0,1.3394 -0.063,1.2756 -3.2529,1.6582 l -0.319,4.5924 0.4466,0.4465 c 0,0 5.2939,-0.1913 10.4603,-0.1913 2.9978,0 7.6539,0.063 7.6539,0.063 l 0.4465,-4.2097 -0.3827,-0.574 c -1.4669,-0.1276 -2.2961,-1.0844 -2.8702,-3.3167 z m -16.3283,-15.1803 1.2118,0 1.5309,7.9091 c -0.9568,0.063 -1.786,0.063 -2.4877,0.063 l -2.4236,0 2.1686,-7.973 z" />
        <path
           inkscape:connector-curvature="0"
           id="path6088-0"
           style="font-style:normal;font-variant:normal;font-weight:900;font-stretch:normal;font-size:medium;line-height:125%;font-family:'Alegreya SC';-inkscape-font-specification:'Alegreya SC Heavy';text-align:start;letter-spacing:0px;word-spacing:0px;writing-mode:lr-tb;text-anchor:start;fill:#000000;fill-opacity:1;stroke:none;stroke-width:1px;stroke-linecap:butt;stroke-linejoin:miter;stroke-opacity:1"
           d="m 3883.8657,3966.0716 c 1.0844,3.9546 5.8681,24.684 5.8681,24.684 l 16.0732,-0.8292 7.3988,-24.5564 c 0.6379,-1.8498 0.9566,-2.3599 1.9772,-2.7426 l 0.3828,-4.7199 c 0,0 -3.5081,0.063 -6.6334,0.063 -3.1892,0 -8.2281,-0.1276 -8.2281,-0.1276 l -0.3827,4.4648 0.4465,0.5741 1.2119,0 c 1.212,0 1.3394,0.063 1.3394,0.8292 0,1.6584 -4.082,18.6245 -3.763,17.4126 l -1.212,0 c 0,0 -2.36,-14.67 -2.36,-16.711 0,-1.2119 0,-1.2119 3.1892,-1.5946 l 0.319,-4.5923 -0.4466,-0.4466 c 0,0 -5.0388,0.1914 -10.3966,0.1914 -2.934,0 -7.3987,-0.1276 -7.3987,-0.1276 l -0.4465,4.2734 0.4465,0.5741 c 1.2756,0.1914 1.9772,1.0844 2.615,3.3806 z" />
        <path
           inkscape:connector-curvature="0"
           id="path6090-2"
           style="font-style:normal;font-variant:normal;font-weight:900;font-stretch:normal;font-size:medium;line-height:125%;font-family:'Alegreya SC';-inkscape-font-specification:'Alegreya SC Heavy';text-align:start;letter-spacing:0px;word-spacing:0px;writing-mode:lr-tb;text-anchor:start;fill:#000000;fill-opacity:1;stroke:none;stroke-width:1px;stroke-linecap:butt;stroke-linejoin:miter;stroke-opacity:1"
           d="m 3932.1384,3965.1786 c 0.1913,-1.8496 0.574,-2.2323 2.934,-2.5512 l 0.3826,-4.8475 c 0,0 -7.2712,0.1914 -9.5036,0.1914 l -8.802,0 -0.4465,4.0183 0.5103,0.7654 1.2756,0 c 1.467,0 1.8497,0.4464 1.8497,2.4874 l 0,16.456 c 0,2.7427 -0.5102,3.4443 -3.3167,4.0183 l -0.4465,4.5924 c 0,0 5.7405,-0.1913 9.121,-0.1913 2.2324,0 9.1209,0.1913 9.1209,0.1913 l 0.4464,-4.4648 -0.4464,-0.574 c 0,0 -0.4465,0.1275 -1.5307,0.1275 -1.3395,0 -1.6585,-0.6378 -1.6585,-3.3805 0,-6.8885 0.1914,-12.6927 0.5104,-16.8387 z" />
        <path
           inkscape:connector-curvature="0"
           id="path6092-9"
           style="font-style:normal;font-variant:normal;font-weight:900;font-stretch:normal;font-size:medium;line-height:125%;font-family:'Alegreya SC';-inkscape-font-specification:'Alegreya SC Heavy';text-align:start;letter-spacing:0px;word-spacing:0px;writing-mode:lr-tb;text-anchor:start;fill:#000000;fill-opacity:1;stroke:none;stroke-width:1px;stroke-linecap:butt;stroke-linejoin:miter;stroke-opacity:1"
           d="m 3946.8253,3981.7621 c 0,2.679 -1.0205,3.5082 -5.2939,3.8271 l -0.3828,5.0388 c 0,0 7.5902,-0.5102 11.0982,-0.5102 3.0617,0 11.0983,0.3189 11.0983,0.3189 l 0.5102,-5.1026 -0.319,-0.319 c 0,0 -1.4032,0.1914 -2.615,0.1914 -2.041,0 -2.7427,-0.893 -2.7427,-3.4444 0,-6.2506 0.063,-11.9911 0.1913,-17.0937 2.2963,0 2.4876,1.2119 2.934,7.2713 l 7.1438,-0.3828 c 0,0 -0.1914,-7.2713 -0.1914,-13.3943 l -0.7654,-0.7654 -6.6334,0.5741 -16.6473,0 -6.5696,-0.5741 -0.7016,0.7654 c -0.063,5.9318 -0.3827,13.7771 -0.3827,13.7771 l 7.0799,-0.3828 c 0.4464,-5.3577 0.8292,-6.8885 3.1891,-6.8885 l 0,17.0937 z" />
        <g
           id="g9311"
           style="fill:#000000"
           transform="matrix(1.0350654,0,0,1.0350654,-141.9231,-138.04844)">
          <path
             id="path9161-6"
             d="m 3955.716,3922.8374 c -8.2833,8e-4 -14.998,6.7155 -14.9989,14.9988 -5e-4,8.2843 6.7146,15.0004 14.9989,15.0012 8.2851,5e-4 15.0016,-6.716 15.0011,-15.0012 -9e-4,-8.2841 -6.717,-14.9993 -15.0011,-14.9988 z"
             style="color:#000000;clip-rule:nonzero;display:inline;overflow:visible;visibility:visible;opacity:1;isolation:auto;mix-blend-mode:normal;color-interpolation:sRGB;color-interpolation-filters:linearRGB;solid-color:#000000;solid-opacity:1;fill:#000000;fill-opacity:1;fill-rule:nonzero;stroke:none;stroke-width:17.56793976;stroke-linecap:round;stroke-linejoin:round;stroke-miterlimit:4;stroke-dasharray:70.27175903, 35.13587952, 17.56793976, 35.13587952;stroke-dashoffset:0;stroke-opacity:1;color-rendering:auto;image-rendering:auto;shape-rendering:auto;text-rendering:auto;enable-background:accumulate"
             inkscape:connector-curvature="0"
             sodipodi:nodetypes="ccccc" />
          <rect
             style="opacity:1;fill:#000000;fill-opacity:1;stroke:#ffffff;stroke-width:3.00000024;stroke-linecap:round;stroke-linejoin:round;stroke-miterlimit:4;stroke-dasharray:none;stroke-dashoffset:0;stroke-opacity:1"
             id="rect9163-1"
             width="11.007571"
             height="11.007571"
             x="3950.2126"
             y="3932.3335"
             rx="0"
             ry="0" />
        </g>
        <text
           sodipodi:linespacing="125%"
           id="text9367"
           y="3913.7258"
           x="3683.3887"
           style="font-style:normal;font-variant:normal;font-weight:bold;font-stretch:normal;font-size:12.50000095px;line-height:125%;font-family:'Alegreya SC';-inkscape-font-specification:'Alegreya SC Bold';text-align:start;letter-spacing:1.23597431px;word-spacing:0px;writing-mode:lr-tb;text-anchor:start;fill:#1a1a1a;fill-opacity:1;stroke:none;stroke-width:1px;stroke-linecap:butt;stroke-linejoin:miter;stroke-opacity:1"
           xml:space="preserve"><tspan
             y="3913.7258"
             x="3683.3887"
             id="tspan9369"
             sodipodi:role="line">graphically told /<tspan
   style="font-style:normal;font-variant:normal;font-weight:normal;font-stretch:normal;font-size:12.50000095px;font-family:'Alegreya SC';-inkscape-font-specification:'Alegreya SC'"
   id="tspan9390"> comics</tspan></tspan></text>
      </g>
    </g>
  </g>
</svg>
