<?xml version="1.0" encoding="UTF-8" standalone="no"?>
<!-- Created with Inkscape (http://www.inkscape.org/) -->

<svg
   xmlns:dc="http://purl.org/dc/elements/1.1/"
   xmlns:cc="http://creativecommons.org/ns#"
   xmlns:rdf="http://www.w3.org/1999/02/22-rdf-syntax-ns#"
   xmlns:svg="http://www.w3.org/2000/svg"
   xmlns="http://www.w3.org/2000/svg"
   xmlns:sodipodi="http://sodipodi.sourceforge.net/DTD/sodipodi-0.dtd"
   xmlns:inkscape="http://www.inkscape.org/namespaces/inkscape"
   width="81.108017mm"
   height="28.064388mm"
   viewBox="0 0 287.39062 99.440746"
   id="svg6339"
   version="1.1"
   inkscape:version="0.91 r13725"
   sodipodi:docname="portare_folium_portfolio_page.svg">
  <defs
     id="defs6341" />
  <sodipodi:namedview
     id="base"
     pagecolor="#ffffff"
     bordercolor="#666666"
     borderopacity="1.0"
     inkscape:pageopacity="0.0"
     inkscape:pageshadow="2"
     inkscape:zoom="0.35"
     inkscape:cx="109.38405"
     inkscape:cy="155.92839"
     inkscape:document-units="px"
     inkscape:current-layer="layer1"
     showgrid="false"
     fit-margin-top="0"
     fit-margin-left="0"
     fit-margin-right="0"
     fit-margin-bottom="0"
     inkscape:window-width="1920"
     inkscape:window-height="1009"
     inkscape:window-x="0"
     inkscape:window-y="21"
     inkscape:window-maximized="1" />
  <metadata
     id="metadata6344">
    <rdf:RDF>
      <cc:Work
         rdf:about="">
        <dc:format>image/svg+xml</dc:format>
        <dc:type
           rdf:resource="http://purl.org/dc/dcmitype/StillImage" />
        <dc:title></dc:title>
      </cc:Work>
    </rdf:RDF>
  </metadata>
  <g
     inkscape:label="Layer 1"
     inkscape:groupmode="layer"
     id="layer1"
     transform="translate(161.5269,-588.84985)">
    <g
       id="g9548"
       transform="translate(-3842.4642,-3193.1604)">
      <path
         inkscape:connector-curvature="0"
         id="path5884-3"
         style="font-style:normal;font-variant:normal;font-weight:900;font-stretch:normal;font-size:medium;line-height:125%;font-family:'Alegreya SC';-inkscape-font-specification:'Alegreya SC Heavy';text-align:start;letter-spacing:0px;word-spacing:0px;writing-mode:lr-tb;text-anchor:start;fill:#000000;fill-opacity:1;stroke:none;stroke-width:1px;stroke-linecap:butt;stroke-linejoin:miter;stroke-opacity:1"
         d="m 3826.0995,3880.756 c 9.5743,0 19.0716,0.386 19.0716,0.386 l 1.081,-1.0809 c 0.5405,-8.7251 1.467,-16.8324 1.467,-16.8324 l -0.8494,-1.0039 -8.8794,0.8494 c -0.3861,8.1846 -1.4671,10.0376 -5.6367,10.0376 -1.3126,0 -2.0074,-0.772 -2.0074,-2.2391 0,-9.806 0.3088,-15.1337 0.6948,-20.1525 0.077,-1.776 1.3126,-2.3165 5.7911,-2.7026 l 0.7721,-6.4086 c 0,0 -11.0415,0.2317 -14.13,0.2317 l -10.7326,0 -0.5405,4.8644 0.695,0.9265 1.5442,0 c 1.776,0 2.2391,0.5405 2.2391,3.0114 l 0,19.3803 c 0,3.6291 -0.9265,4.8645 -4.0923,5.3277 l -0.6176,6.0227 c 0,0 7.3353,-0.6177 14.13,-0.6177 z" />
      <path
         inkscape:connector-curvature="0"
         id="path5886-5"
         style="font-style:normal;font-variant:normal;font-weight:900;font-stretch:normal;font-size:medium;line-height:125%;font-family:'Alegreya SC';-inkscape-font-specification:'Alegreya SC Heavy';text-align:start;letter-spacing:0px;word-spacing:0px;writing-mode:lr-tb;text-anchor:start;fill:#000000;fill-opacity:1;stroke:none;stroke-width:1px;stroke-linecap:butt;stroke-linejoin:miter;stroke-opacity:1"
         d="m 3868.2901,3850.5657 c 0.2317,-2.2391 0.695,-2.7025 3.5519,-3.0886 l 0.4633,-5.8681 c 0,0 -8.8024,0.2317 -11.5048,0.2317 l -10.6553,0 -0.5405,4.8644 0.6176,0.9265 1.5443,0 c 1.7758,0 2.2392,0.5405 2.2392,3.0114 l 0,19.9208 c 0,3.3201 -0.6177,4.1696 -4.0151,4.8645 l -0.5405,5.5593 c 0,0 6.9492,-0.2316 11.0415,-0.2316 2.7024,0 11.0414,0.2316 11.0414,0.2316 l 0.5405,-5.4049 -0.5405,-0.6949 c 0,0 -0.5405,0.1544 -1.8531,0.1544 -1.6214,0 -2.0075,-0.7722 -2.0075,-4.0923 0,-8.3391 0.2315,-15.3654 0.6176,-20.3842 z" />
      <path
         inkscape:connector-curvature="0"
         id="path5888-49"
         style="font-style:normal;font-variant:normal;font-weight:900;font-stretch:normal;font-size:medium;line-height:125%;font-family:'Alegreya SC';-inkscape-font-specification:'Alegreya SC Heavy';text-align:start;letter-spacing:0px;word-spacing:0px;writing-mode:lr-tb;text-anchor:start;fill:#000000;fill-opacity:1;stroke:none;stroke-width:1px;stroke-linecap:butt;stroke-linejoin:miter;stroke-opacity:1"
         d="m 3890.7796,3867.8614 0.386,-17.2957 c 0.077,-1.776 0.8494,-2.7025 2.9342,-2.7796 l 0.6949,-6.1771 c 0,0 -6.3315,0.2317 -8.8024,0.2317 -5.4048,0 -11.8907,-0.1544 -11.8907,-0.1544 l -0.6949,5.7908 0.1545,0.2318 c 0,0 1.1581,-0.077 1.7759,-0.077 1.467,0 1.7758,0.5404 1.7758,3.2429 l 0,18.0678 c 0,8.8795 4.71,12.5084 15.9831,12.5084 11.4275,0 17.2185,-5.0959 17.2185,-14.9792 l 0,-16.3692 c 0,-1.2353 0.3861,-1.6214 2.9341,-2.4707 l 0.5405,-5.9454 c 0,0 -5.5594,0.1544 -9.6516,0.1544 -2.3164,0 -7.7213,-0.1544 -7.7213,-0.1544 l -0.7722,5.7909 0.2317,0.2317 c 0,0 0.6949,-0.077 1.3126,-0.077 1.1582,0 1.6215,0.7721 1.5442,3.2429 0,0 0.077,14.2071 0.077,17.8362 0,3.1656 -1.1582,4.4011 -3.8607,4.4011 -2.7025,0 -4.1696,-2.162 -4.1696,-5.2505 z" />
      <path
         inkscape:connector-curvature="0"
         id="path5894-1"
         style="font-style:normal;font-variant:normal;font-weight:900;font-stretch:normal;font-size:medium;line-height:125%;font-family:'Alegreya SC';-inkscape-font-specification:'Alegreya SC Heavy';text-align:start;letter-spacing:0px;word-spacing:0px;writing-mode:lr-tb;text-anchor:start;fill:#000000;fill-opacity:1;stroke:none;stroke-width:1px;stroke-linecap:butt;stroke-linejoin:miter;stroke-opacity:1"
         d="m 3681.0873,3802.099 0.6749,0.7499 c 0,0 1.2747,-0.074 2.2494,-0.074 1.1247,0 1.4997,0.7499 1.4997,3.1494 l 0,18.7456 c 0,3.2244 -0.9748,4.4991 -3.9742,4.9488 l -0.5998,5.8487 c 0,0.074 9.0729,-0.5248 11.9223,-0.5248 2.6244,0 10.7225,0.2248 10.7225,0.2248 l 0.5998,-5.3986 -0.2998,-0.5249 c 0,0 -1.0498,0.074 -1.8746,0.074 -2.6244,0 -3.2243,-1.1246 -3.2243,-3.8241 l 0,-2.3244 5.3987,0 c 8.4731,0 15.7465,-6.4486 15.7465,-13.9468 0,-4.1991 -1.6497,-12.4471 -17.3961,-12.4471 0,0 -8.698,0.3748 -11.6223,0.3748 l -9.1478,0 -0.6749,4.9488 z m 17.8459,13.2721 0.4499,-9.1479 c 0.074,-1.1248 0.2249,-1.3498 0.9748,-1.3498 3.974,0 5.6986,1.4247 5.6986,4.799 0,3.4491 -0.9747,5.3987 -3.1492,6.2236 l -3.9741,-0.5249 z" />
      <path
         inkscape:connector-curvature="0"
         id="path5896-9"
         style="font-style:normal;font-variant:normal;font-weight:900;font-stretch:normal;font-size:medium;line-height:125%;font-family:'Alegreya SC';-inkscape-font-specification:'Alegreya SC Heavy';text-align:start;letter-spacing:0px;word-spacing:0px;writing-mode:lr-tb;text-anchor:start;fill:#000000;fill-opacity:1;stroke:none;stroke-width:1px;stroke-linecap:butt;stroke-linejoin:miter;stroke-opacity:1"
         d="m 3740.2815,3827.5183 c -3.5242,0 -4.349,-3.2243 -4.349,-13.9468 0,-6.4486 0.7498,-8.3231 3.6741,-8.3231 3.5992,0 4.424,3.0742 4.424,13.7968 0,6.4485 -0.8248,8.4731 -3.7491,8.4731 z m -1.1248,8.0981 c 13.197,0 20.3203,-7.1234 20.3203,-20.4704 0,-12.597 -6.0735,-18.6706 -18.6707,-18.6706 -13.4219,0 -20.3202,6.8234 -20.3202,20.0954 0,12.5221 6.4484,19.0456 18.6706,19.0456 z" />
      <path
         inkscape:connector-curvature="0"
         id="path5898-6"
         style="font-style:normal;font-variant:normal;font-weight:900;font-stretch:normal;font-size:medium;line-height:125%;font-family:'Alegreya SC';-inkscape-font-specification:'Alegreya SC Heavy';text-align:start;letter-spacing:0px;word-spacing:0px;writing-mode:lr-tb;text-anchor:start;fill:#000000;fill-opacity:1;stroke:none;stroke-width:1px;stroke-linecap:butt;stroke-linejoin:miter;stroke-opacity:1"
         d="m 3782.9233,3822.1195 3.4493,8.4731 c 1.5746,3.9741 3.5241,5.2488 7.1982,5.2488 l 10.1978,-0.5999 0.5999,-4.6489 -0.7499,-1.0498 c -1.5747,0 -3.7491,-1.9495 -5.8487,-5.1738 l -3.4491,-5.3238 c 4.7987,-2.7744 7.2732,-6.4485 7.2732,-11.0224 0,-7.6483 -5.8486,-11.2474 -17.8459,-11.2474 0,0 -8.9229,0.3748 -11.9972,0.3748 -2.5493,0 -9.073,-0.074 -9.073,-0.074 l -0.7497,5.0237 0.6748,0.75 c 0,0 1.2747,-0.074 2.2494,-0.074 1.1248,0 1.4997,0.5998 1.4997,2.3994 l 0,19.4955 c 0,3.2243 -0.9748,4.499 -3.9741,5.0239 l -0.5248,5.8486 c 0,0 6.4485,-0.5999 11.2473,-0.5999 2.5495,0 10.6476,0.2251 10.6476,0.2251 l 0.6748,-5.3238 -0.3748,-0.5249 c -3.9742,-0.225 -4.4239,-0.5999 -4.4239,-4.0491 l 0,-3.1494 3.2991,0 z m -3.0743,-8.0982 c 0.074,-2.7744 0.15,-5.4736 0.375,-7.7981 0.074,-1.1248 0.2249,-1.2747 1.0497,-1.2747 4.499,0 6.4485,1.2747 6.4485,4.274 0,2.6994 -0.225,4.124 -3.3742,5.3987 l -4.499,-0.5999 z" />
      <path
         inkscape:connector-curvature="0"
         id="path5900-17"
         style="font-style:normal;font-variant:normal;font-weight:900;font-stretch:normal;font-size:medium;line-height:125%;font-family:'Alegreya SC';-inkscape-font-specification:'Alegreya SC Heavy';text-align:start;letter-spacing:0px;word-spacing:0px;writing-mode:lr-tb;text-anchor:start;fill:#000000;fill-opacity:1;stroke:none;stroke-width:1px;stroke-linecap:butt;stroke-linejoin:miter;stroke-opacity:1"
         d="m 3817.1143,3825.1189 c 0,3.1492 -1.1998,4.124 -6.2236,4.4988 l -0.4498,5.9238 c 0,0 8.9228,-0.5999 13.047,-0.5999 3.5992,0 13.0469,0.3748 13.0469,0.3748 l 0.5999,-5.9986 -0.3749,-0.3749 c 0,0 -1.6496,0.225 -3.0744,0.225 -2.3993,0 -3.2241,-1.0497 -3.2241,-4.049 0,-7.3483 0.074,-14.0968 0.2249,-20.0955 2.6994,0 2.9243,1.4247 3.4492,8.5481 l 8.3981,-0.45 c 0,0 -0.225,-8.548 -0.225,-15.7464 l -0.8998,-0.8997 -7.7982,0.6748 -19.5705,0 -7.7232,-0.6748 -0.8249,0.8997 c -0.074,6.9735 -0.4499,16.1964 -0.4499,16.1964 l 8.3232,-0.45 c 0.5248,-6.2985 0.9748,-8.0981 3.7491,-8.0981 l 0,20.0955 z" />
      <path
         inkscape:connector-curvature="0"
         id="path5902-0"
         style="font-style:normal;font-variant:normal;font-weight:900;font-stretch:normal;font-size:medium;line-height:125%;font-family:'Alegreya SC';-inkscape-font-specification:'Alegreya SC Heavy';text-align:start;letter-spacing:0px;word-spacing:0px;writing-mode:lr-tb;text-anchor:start;fill:#000000;fill-opacity:1;stroke:none;stroke-width:1px;stroke-linecap:butt;stroke-linejoin:miter;stroke-opacity:1"
         d="m 3882.7782,3825.5687 c -1.4248,-5.0238 -7.4984,-28.2685 -7.4984,-28.2685 l -0.9747,-0.8248 -18.0709,0.9748 -9.5977,29.1683 c -0.5249,1.4997 -1.5748,2.5494 -2.9244,2.9243 l -0.4499,5.4737 8.473,0 c 3.7492,0 9.7478,0.15 9.7478,0.15 l 0.5249,-5.2488 -0.5998,-0.6748 -1.3499,0 c -1.5745,0 -1.6495,-0.074 -1.6495,-0.9748 0,-0.1499 0,-0.5249 0.075,-1.0497 l 0.4497,-1.9496 c 1.6497,-0.074 3.4493,-0.225 4.724,-0.225 1.1247,0 2.8494,0 4.5741,0.075 l 0.1498,1.5745 c 0,0.3 0.075,0.5249 0.075,0.6748 0,1.5748 -0.075,1.4998 -3.8242,1.9496 l -0.3749,5.3987 0.5248,0.525 c 0,0 6.2236,-0.225 12.2973,-0.225 3.5241,0 8.9979,0.075 8.9979,0.075 l 0.5248,-4.9489 -0.4499,-0.675 c -1.7245,-0.1499 -2.6993,-1.2747 -3.3742,-3.899 z m -7.2016,-40.837 c -7.012,0.5931 -11.5817,1.0877 -18.7544,1.0162 l -1.4245,8.1732 1.1997,1.1246 c 7.0346,-0.071 11.1686,-0.7379 18.4544,-0.7894 l 1.3496,-8.1732 -0.8248,-1.3497 z m -11.9941,22.9911 1.4248,0 1.7996,9.2979 c -1.1248,0.074 -2.0996,0.074 -2.9244,0.074 l -2.8494,0 2.5494,-9.3728 z"
         sodipodi:nodetypes="cccccccscccssccsccscccsccccccccccccccccsccc" />
      <path
         inkscape:connector-curvature="0"
         id="path5904-1"
         style="font-style:normal;font-variant:normal;font-weight:900;font-stretch:normal;font-size:medium;line-height:125%;font-family:'Alegreya SC';-inkscape-font-specification:'Alegreya SC Heavy';text-align:start;letter-spacing:0px;word-spacing:0px;writing-mode:lr-tb;text-anchor:start;fill:#000000;fill-opacity:1;stroke:none;stroke-width:1px;stroke-linecap:butt;stroke-linejoin:miter;stroke-opacity:1"
         d="m 3909.0174,3822.1195 3.4492,8.4731 c 1.5746,3.9741 3.5243,5.2488 7.1985,5.2488 l 10.1975,-0.5999 0.5999,-4.6489 -0.7498,-1.0498 c -1.5745,0 -3.7492,-1.9495 -5.8486,-5.1738 l -3.4493,-5.3238 c 4.799,-2.7744 7.2734,-6.4485 7.2734,-11.0224 0,-7.6483 -5.8487,-11.2474 -17.8459,-11.2474 0,0 -8.923,0.3748 -11.9973,0.3748 -2.5494,0 -9.0729,-0.074 -9.0729,-0.074 l -0.7499,5.0237 0.6748,0.75 c 0,0 1.2748,-0.074 2.2496,-0.074 1.1248,0 1.4996,0.5998 1.4996,2.3994 l 0,19.4955 c 0,3.2243 -0.9746,4.499 -3.974,5.0239 l -0.5249,5.8486 c 0,0 6.4484,-0.5999 11.2474,-0.5999 2.5494,0 10.6476,0.2251 10.6476,0.2251 l 0.6749,-5.3238 -0.375,-0.5249 c -3.974,-0.225 -4.424,-0.5999 -4.424,-4.0491 l 0,-3.1494 3.2992,0 z m -3.0743,-8.0982 c 0.075,-2.7744 0.15,-5.4736 0.375,-7.7981 0.074,-1.1248 0.2249,-1.2747 1.0498,-1.2747 4.4989,0 6.4485,1.2747 6.4485,4.274 0,2.6994 -0.225,4.124 -3.3742,5.3987 l -4.4991,-0.5999 z" />
      <path
         inkscape:connector-curvature="0"
         id="path5906-3"
         style="font-style:normal;font-variant:normal;font-weight:900;font-stretch:normal;font-size:medium;line-height:125%;font-family:'Alegreya SC';-inkscape-font-specification:'Alegreya SC Heavy';text-align:start;letter-spacing:0px;word-spacing:0px;writing-mode:lr-tb;text-anchor:start;fill:#000000;fill-opacity:1;stroke:none;stroke-width:1px;stroke-linecap:butt;stroke-linejoin:miter;stroke-opacity:1"
         d="m 3949.507,3823.9941 c 0,-1.1248 -0.075,-2.6244 0,-3.8241 1.1248,-0.074 2.8493,-0.3 4.6489,-0.3 2.7743,0 7.2734,0.1499 7.2734,0.1499 l 0.8998,-7.2732 -0.8249,-0.9748 c 0,0 -4.8738,0.2999 -6.7484,0.2999 l -4.8739,0 0.2999,-5.7737 c 0,-1.1248 0.3749,-1.4247 1.8745,-1.4247 4.4991,0 5.6238,0.5999 5.6238,2.9994 0,0.7498 -0.15,2.0995 -0.15,2.0995 l 9.373,-0.525 c 0.2998,-5.5487 1.4246,-11.9971 1.4246,-11.9971 l -0.8998,-0.9748 c -3.4492,0.3749 -11.8473,0.6748 -19.3456,0.6748 -5.9236,0 -15.2214,-0.1499 -15.2214,-0.1499 l -0.5999,4.9488 0.8247,0.8998 c 0,0 0.8998,-0.074 1.5747,-0.074 1.2747,0 1.5746,0.5998 1.5746,3.1494 l -0.074,18.5957 c 0,3.5242 -0.8999,4.7239 -3.8992,5.1737 l -0.5999,5.8488 c 0,0 7.0485,-0.5999 13.722,-0.5999 10.1226,0 20.0953,0.3749 20.0953,0.3749 l 1.0497,-0.9748 c 0.5999,-6.5985 1.7247,-12.4471 1.7247,-12.4471 l -0.8248,-0.9748 -8.6231,0.5999 c -0.7498,5.0238 -1.8746,5.9986 -6.5984,5.9986 -2.3994,0 -2.6994,-0.5249 -2.6994,-3.5242 z" />
      <path
         inkscape:connector-curvature="0"
         id="path5908-5"
         style="font-style:normal;font-variant:normal;font-weight:900;font-stretch:normal;font-size:medium;line-height:125%;font-family:'Alegreya SC';-inkscape-font-specification:'Alegreya SC Heavy';text-align:start;letter-spacing:0px;word-spacing:0px;writing-mode:lr-tb;text-anchor:start;fill:#000000;fill-opacity:1;stroke:none;stroke-width:1px;stroke-linecap:butt;stroke-linejoin:miter;stroke-opacity:1"
         d="m 3750.6467,3869.5601 0,-3.0113 c 1.081,-0.077 2.9341,-0.3088 4.7872,-0.3088 2.7797,0 7.3353,0.1544 7.3353,0.1544 l 0.8494,-7.4898 -0.8494,-0.9265 c 0,0 -4.8643,0.3089 -6.7175,0.3089 l -5.0961,-0.077 0.3861,-6.949 c 0,-1.1583 0.386,-1.4671 1.9304,-1.4671 3.2428,0 4.2467,0.7722 4.2467,3.0885 0,0.7722 -0.077,2.0848 -0.077,2.0848 l 9.5744,-0.5405 c 0.2316,-5.4821 1.0811,-12.277 1.0811,-12.277 l -0.8495,-1.0036 c -3.1657,0.386 -10.9641,0.6949 -18.0678,0.6949 -6.0998,0 -15.6742,-0.1544 -15.6742,-0.1544 l -0.6177,5.0959 0.8494,0.9267 c 0,0 0.9266,-0.077 1.6215,-0.077 1.3126,0 1.6214,0.6176 1.6214,3.2429 l -0.077,19.1488 c 0,3.629 -0.9266,4.8644 -4.0151,5.2505 l -0.6177,6.0225 c 0,0 7.258,-0.5405 14.3615,-0.5405 2.9341,0 10.5009,0.1545 10.5009,0.1545 l 0.9266,-7.1036 -1.1582,-1.2354 c 0,0 -1.6215,0.5405 -3.629,0.5405 -2.1619,0 -2.6252,-0.6949 -2.6252,-3.5518 z" />
      <path
         inkscape:connector-curvature="0"
         id="path5910-8"
         style="font-style:normal;font-variant:normal;font-weight:900;font-stretch:normal;font-size:medium;line-height:125%;font-family:'Alegreya SC';-inkscape-font-specification:'Alegreya SC Heavy';text-align:start;letter-spacing:0px;word-spacing:0px;writing-mode:lr-tb;text-anchor:start;fill:#000000;fill-opacity:1;stroke:none;stroke-width:1px;stroke-linecap:butt;stroke-linejoin:miter;stroke-opacity:1"
         d="m 3789.9107,3873.1118 c -3.629,0 -4.4783,-3.3202 -4.4783,-14.3616 0,-6.6403 0.7721,-8.5705 3.7834,-8.5705 3.7062,0 4.5556,3.1657 4.5556,14.2071 0,6.6404 -0.8494,8.725 -3.8607,8.725 z m -1.1582,8.339 c 13.5895,0 20.9247,-7.3351 20.9247,-21.079 0,-12.9718 -6.2542,-19.226 -19.226,-19.226 -13.8211,0 -20.9248,7.0263 -20.9248,20.693 0,12.8946 6.6404,19.612 19.2261,19.612 z" />
      <path
         inkscape:connector-curvature="0"
         id="path5912-6"
         style="font-style:normal;font-variant:normal;font-weight:900;font-stretch:normal;font-size:medium;line-height:125%;font-family:'Alegreya SC';-inkscape-font-specification:'Alegreya SC Heavy';text-align:start;letter-spacing:0px;word-spacing:0px;writing-mode:lr-tb;text-anchor:start;fill:#000000;fill-opacity:1;stroke:none;stroke-width:1px;stroke-linecap:butt;stroke-linejoin:miter;stroke-opacity:1"
         d="m 3944.392,3880.756 c 3.3201,-12.0453 6.7946,-22.0058 6.2542,-20.0754 l 0.9266,0 0,11.6592 c 0,1.9302 -0.8495,2.7024 -3.2431,2.9341 l -0.7721,5.9454 c 0.9266,-0.2317 12.0452,-0.4633 13.049,-0.4633 3.0885,0.077 7.1808,0.1543 7.1808,0.1543 l 0.5405,-5.5593 -0.4633,-0.5405 c 0,0 -0.9265,0.077 -1.9303,0.077 -1.9303,0 -2.7025,-1.3126 -2.9341,-5.0962 -0.6177,-5.0959 -1.3898,-15.2108 -1.3898,-19.2259 0,-2.4708 0.6177,-2.9342 4.0922,-3.0113 l 0.5405,-5.8682 -0.4632,-0.2316 c 0,0 -2.7025,0.1544 -5.9454,0.3089 -4.324,0.3088 -8.339,0.077 -12.8174,0.077 -1.7759,7.1808 -4.6327,16.9096 -4.6327,16.9096 l -0.9266,0 c 0,0 -2.548,-9.8061 -3.9379,-17.1413 0,0 -6.8719,0.2317 -10.5781,0.2317 -2.7797,0 -9.7288,-0.309 -9.7288,-0.309 l -0.6949,5.7138 0.5405,0.5405 c 3.8606,0.4633 3.7834,0.3089 3.7834,2.5481 0,1.5441 -2.162,21.0019 -2.162,21.2335 -0.1543,2.548 -1.2353,3.5517 -3.6289,3.7835 l -0.4634,5.868 c 0,-0.077 5.1733,-0.4631 7.7213,-0.4631 2.0848,0 9.5744,0.2316 9.5744,0.2316 l 0.7721,-5.6365 -0.6176,-0.4633 c 0,0 -1.1583,0.077 -1.5443,0.077 -1.4671,0 -2.1619,-0.6178 -2.1619,-2.0076 0,-1.3126 0.077,-12.2769 0.077,-12.2769 l 0.9266,0 c -0.5405,-1.9302 2.6252,7.6442 6.1771,20.693 l 8.8794,-0.6176 z" />
      <text
         sodipodi:linespacing="125%"
         id="text5914-5"
         y="3788.3853"
         x="3683.7205"
         style="font-style:normal;font-variant:normal;font-weight:bold;font-stretch:normal;font-size:12.50000095px;line-height:125%;font-family:'Alegreya SC';-inkscape-font-specification:'Alegreya SC Bold';text-align:start;letter-spacing:1.23597431px;word-spacing:0px;writing-mode:lr-tb;text-anchor:start;fill:#1a1a1a;fill-opacity:1;stroke:none;stroke-width:1px;stroke-linecap:butt;stroke-linejoin:miter;stroke-opacity:1"
         xml:space="preserve"><tspan
           y="3788.3853"
           x="3683.7205"
           id="tspan5916-30"
           sodipodi:role="line">portfolio</tspan></text>
      <path
         sodipodi:nodetypes="ccccc"
         inkscape:connector-curvature="0"
         style="color:#000000;clip-rule:nonzero;display:inline;overflow:visible;visibility:visible;opacity:1;isolation:auto;mix-blend-mode:normal;color-interpolation:sRGB;color-interpolation-filters:linearRGB;solid-color:#000000;solid-opacity:1;fill:#000000;fill-opacity:1;fill-rule:nonzero;stroke:none;stroke-width:17.56793976;stroke-linecap:round;stroke-linejoin:round;stroke-miterlimit:4;stroke-dasharray:70.27175903, 35.13587952, 17.56793976, 35.13587952;stroke-dashoffset:0;stroke-opacity:1;color-rendering:auto;image-rendering:auto;shape-rendering:auto;text-rendering:auto;enable-background:accumulate"
         d="m 3707.1986,3845.8435 c -8.5741,8e-4 -15.5246,6.9513 -15.5255,15.5254 -5e-4,8.5751 6.9504,15.527 15.5255,15.5278 8.576,5e-4 15.5283,-6.9518 15.5278,-15.5278 -9e-4,-8.575 -6.9528,-15.5259 -15.5278,-15.5254 z"
         id="path5918-3" />
      <path
         id="path9185-7"
         d="m 3707.1986,3845.8435 c -8.5884,8e-4 -15.5504,6.9628 -15.5513,15.5512 -6e-4,8.5894 6.9619,15.5529 15.5513,15.5537 8.5902,5e-4 15.5541,-6.9633 15.5536,-15.5537 -9e-4,-8.5892 -6.9644,-15.5517 -15.5536,-15.5512 z"
         style="color:#000000;clip-rule:nonzero;display:inline;overflow:visible;visibility:visible;opacity:1;isolation:auto;mix-blend-mode:normal;color-interpolation:sRGB;color-interpolation-filters:linearRGB;solid-color:#000000;solid-opacity:1;fill:#000000;fill-opacity:1;fill-rule:nonzero;stroke:none;stroke-width:17.56793976;stroke-linecap:round;stroke-linejoin:round;stroke-miterlimit:4;stroke-dasharray:70.27175903, 35.13587952, 17.56793976, 35.13587952;stroke-dashoffset:0;stroke-opacity:1;color-rendering:auto;image-rendering:auto;shape-rendering:auto;text-rendering:auto;enable-background:accumulate"
         inkscape:connector-curvature="0"
         sodipodi:nodetypes="ccccc" />
      <path
         style="opacity:1;fill:#000000;fill-opacity:1;stroke:#ffffff;stroke-width:3.00000024;stroke-linecap:round;stroke-linejoin:round;stroke-miterlimit:4;stroke-dasharray:none;stroke-dashoffset:0;stroke-opacity:1"
         d="m 3707.1997,3855.184 0,0 5.7757,11.5512 -11.5513,0 z"
         id="path9187-8"
         inkscape:connector-curvature="0"
         sodipodi:nodetypes="ccccc" />
    </g>
  </g>
</svg>
