<?xml version="1.0" encoding="UTF-8" standalone="no"?>
<!-- Created with Inkscape (http://www.inkscape.org/) -->

<svg
   xmlns:dc="http://purl.org/dc/elements/1.1/"
   xmlns:cc="http://creativecommons.org/ns#"
   xmlns:rdf="http://www.w3.org/1999/02/22-rdf-syntax-ns#"
   xmlns:svg="http://www.w3.org/2000/svg"
   xmlns="http://www.w3.org/2000/svg"
   xmlns:sodipodi="http://sodipodi.sourceforge.net/DTD/sodipodi-0.dtd"
   xmlns:inkscape="http://www.inkscape.org/namespaces/inkscape"
   width="61.197964mm"
   height="23.837025mm"
   viewBox="0 0 216.84318 84.461898"
   id="svg6339"
   version="1.1"
   inkscape:version="0.91 r13725"
   sodipodi:docname="RahulKondi_landing_page.svg">
  <defs
     id="defs6341" />
  <sodipodi:namedview
     id="base"
     pagecolor="#ffffff"
     bordercolor="#666666"
     borderopacity="1.0"
     inkscape:pageopacity="0.0"
     inkscape:pageshadow="2"
     inkscape:zoom="1.979899"
     inkscape:cx="41.55081"
     inkscape:cy="85.697255"
     inkscape:document-units="px"
     inkscape:current-layer="layer1"
     showgrid="false"
     fit-margin-top="0"
     fit-margin-left="0"
     fit-margin-right="0"
     fit-margin-bottom="0"
     inkscape:window-width="1920"
     inkscape:window-height="1009"
     inkscape:window-x="0"
     inkscape:window-y="21"
     inkscape:window-maximized="1" />
  <metadata
     id="metadata6344">
    <rdf:RDF>
      <cc:Work
         rdf:about="">
        <dc:format>image/svg+xml</dc:format>
        <dc:type
           rdf:resource="http://purl.org/dc/dcmitype/StillImage" />
        <dc:title />
      </cc:Work>
    </rdf:RDF>
  </metadata>
  <g
     inkscape:label="Layer 1"
     inkscape:groupmode="layer"
     id="layer1"
     transform="translate(-143.00702,-472.98841)">
    <path
       style="font-style:normal;font-variant:normal;font-weight:900;font-stretch:normal;font-size:medium;line-height:125%;font-family:'Alegreya SC';-inkscape-font-specification:'Alegreya SC Heavy';text-align:start;letter-spacing:-2.78265786px;word-spacing:0px;writing-mode:lr-tb;text-anchor:start;fill:#000000;fill-opacity:1;stroke:none;stroke-width:1px;stroke-linecap:butt;stroke-linejoin:miter;stroke-opacity:1"
       d="M 64.742188 0 L 48.490234 0.87695312 L 39.857422 27.111328 C 39.398701 28.422061 38.490846 29.346199 37.326172 29.707031 C 35.932778 29.530494 34.091681 27.83211 32.304688 25.087891 L 29.201172 20.298828 C 33.517452 17.803548 35.744141 14.500619 35.744141 10.386719 C 35.744141 3.5077187 30.483979 0.26953125 19.693359 0.26953125 C 19.693359 0.26953125 11.667434 0.60742188 8.9023438 0.60742188 C 6.6093038 0.60742188 0.7421875 0.5390625 0.7421875 0.5390625 L 0.068359375 5.0585938 L 0.67382812 5.7324219 C 0.67382812 5.7324219 1.8205656 5.6660156 2.6972656 5.6660156 C 3.7089456 5.6660156 4.046875 6.2056587 4.046875 7.8242188 L 4.046875 25.357422 C 4.046875 28.257362 3.1702963 29.404843 0.47265625 29.876953 L 0 35.136719 C 0 35.136719 5.7990344 34.597656 10.115234 34.597656 C 12.408284 34.597656 19.693359 34.800781 19.693359 34.800781 L 20.300781 30.011719 L 19.962891 29.539062 C 16.388481 29.336693 15.984375 29.000737 15.984375 25.898438 L 15.984375 23.064453 L 18.951172 23.064453 L 22.052734 30.685547 C 23.469004 34.259887 25.222744 35.40625 28.527344 35.40625 L 37.699219 34.867188 L 37.724609 34.664062 L 44.443359 34.664062 C 47.815409 34.664062 53.210938 34.798828 53.210938 34.798828 L 53.681641 30.078125 L 53.142578 29.472656 L 51.929688 29.472656 C 50.513418 29.472656 50.445312 29.405203 50.445312 28.595703 C 50.445312 28.460793 50.444519 28.122501 50.511719 27.650391 L 50.916016 25.896484 C 52.399746 25.829284 54.019556 25.695312 55.166016 25.695312 C 56.177626 25.695312 57.728177 25.694519 59.279297 25.761719 L 59.414062 27.177734 C 59.414062 27.447484 59.482422 27.650246 59.482422 27.785156 C 59.482422 29.201426 59.415269 29.134403 56.042969 29.539062 L 55.705078 34.394531 L 56.177734 34.867188 C 56.177734 34.867188 61.775491 34.664062 67.238281 34.664062 C 70.355934 34.664062 75.040067 34.728335 75.197266 34.730469 L 75.191406 34.798828 C 75.124206 34.866028 81.059446 34.597656 84.566406 34.597656 C 86.926836 34.597656 94.210938 34.798828 94.210938 34.798828 L 94.681641 30.078125 L 94.210938 29.472656 C 94.210938 29.472656 93.805488 29.607422 92.861328 29.607422 C 91.445048 29.607422 91.107422 28.933203 91.107422 26.033203 L 91.107422 21.513672 C 91.107422 21.513672 95.896449 21.041016 97.042969 21.041016 C 98.256879 21.041016 99.673828 21.109375 99.673828 21.109375 L 99.673828 25.964844 C 99.673828 28.527644 98.59397 29.606448 96.03125 29.673828 L 95.626953 34.664062 C 95.626953 34.664062 102.6413 34.597656 105.27148 34.597656 C 110.1947 34.597656 115.18359 34.664062 115.18359 34.664062 L 115.72461 30.011719 L 115.18359 29.335938 C 115.18359 29.335938 114.57683 29.470703 113.76758 29.470703 C 112.2164 29.470703 111.60937 28.59404 111.60938 26.03125 C 111.60938 18.883488 111.81327 11.803434 112.15039 8.2285156 C 112.15039 8.2285156 112.15039 8.2265625 112.15039 8.2265625 C 112.27027 6.4335773 112.71595 5.9122773 114.64844 5.5351562 L 114.7793 5.7324219 C 114.7793 5.7324219 115.79058 5.6660156 116.33008 5.6660156 C 117.61151 5.6660156 117.88281 6.1376169 117.88281 8.4980469 L 117.88281 24.279297 C 117.88281 32.035077 121.99535 35.205078 131.8418 35.205078 C 141.8231 35.205078 146.88281 30.753574 146.88281 22.121094 L 146.88281 7.8242188 C 146.88281 6.7451487 147.21979 6.4078756 149.44531 5.6660156 L 149.47656 5.3164062 L 149.73828 5.6640625 L 151.08594 5.6640625 C 152.63712 5.6640625 153.04297 6.1367919 153.04297 8.2949219 L 153.04297 25.222656 C 153.04297 28.392406 152.23384 29.472293 149.46875 29.876953 L 148.92773 35.136719 C 148.92773 35.136719 155.33469 34.597656 161.26953 34.597656 C 169.63225 34.597656 177.92773 34.933594 177.92773 34.933594 L 178.87305 33.990234 C 179.3451 26.369374 180.1543 19.289062 180.1543 19.289062 L 179.41211 18.412109 L 171.65625 19.152344 C 171.31905 26.301094 170.37429 27.919922 166.73242 27.919922 C 165.58597 27.919922 164.97852 27.246204 164.97852 25.964844 C 164.97852 17.399814 165.24873 12.746941 165.58594 8.3632812 C 165.65314 6.8121013 166.73291 6.3391531 170.64453 6.0019531 L 171.31836 0.40429688 C 171.31836 0.40429688 161.6742 0.60742188 158.97656 0.60742188 L 149.9043 0.60742188 L 149.91602 0.47265625 C 149.91602 0.47265625 145.06074 0.60742188 141.48633 0.60742188 C 139.46311 0.60742188 134.74219 0.47265625 134.74219 0.47265625 L 134.06836 5.53125 L 134.26953 5.7324219 C 134.26953 5.7324219 134.87646 5.6660156 135.41602 5.6660156 C 136.42764 5.6660156 136.83301 6.3399169 136.76562 8.4980469 C 136.76562 8.4980469 136.83203 20.906492 136.83203 24.076172 C 136.83203 26.841332 135.82137 27.921875 133.46094 27.921875 C 131.10051 27.921875 129.81836 26.033568 129.81836 23.335938 L 129.82031 23.333984 L 130.15625 8.2285156 C 130.22345 6.6773356 130.89789 5.8682412 132.71875 5.8007812 L 133.32617 0.40429688 C 133.32617 0.40429688 127.79674 0.60742188 125.63867 0.60742188 C 121.33271 0.60742188 116.71532 0.50410589 115.85352 0.484375 L 115.85938 0.40429688 C 115.85938 0.40429688 107.96785 0.60742188 105.60742 0.60742188 L 96.166016 0.60742188 L 95.693359 4.8554688 L 96.234375 5.6640625 L 97.716797 5.6640625 C 99.267907 5.6640625 99.673828 6.2042419 99.673828 8.2949219 L 99.673828 13.892578 C 98.864578 13.959778 97.919168 14.027344 95.423828 14.027344 L 91.310547 13.826172 L 91.648438 7.890625 C 91.715638 6.339435 92.187489 5.9339569 94.480469 5.5292969 L 94.884766 0.40429688 C 94.884766 0.40429688 86.521531 0.60742188 83.082031 0.60742188 L 75.730469 0.60742188 L 75.259766 4.8554688 L 75.798828 5.6640625 L 77.214844 5.6640625 C 78.765964 5.6640625 79.169922 6.1367919 79.169922 8.2949219 L 79.169922 25.695312 C 79.169922 28.662692 78.564062 29.403799 75.664062 29.943359 L 75.652344 30.056641 L 75.398438 29.673828 C 73.847741 29.539025 72.970223 28.527088 72.363281 26.167969 C 71.081911 21.649399 65.619141 0.7421875 65.619141 0.7421875 L 64.742188 0 z M 17.466797 7.6210938 C 21.513257 7.6210938 23.267578 8.7671438 23.267578 11.464844 C 23.267578 13.892734 23.064972 15.173783 20.232422 16.320312 L 16.185547 15.78125 C 16.252747 13.28591 16.321078 10.858258 16.523438 8.7675781 C 16.590638 7.7559681 16.724937 7.6210938 17.466797 7.6210938 z M 55.097656 10.115234 L 56.380859 10.115234 L 57.998047 18.478516 C 56.986427 18.545716 56.111011 18.546875 55.369141 18.546875 L 52.804688 18.546875 L 55.097656 10.115234 z M 71.908203 39.513672 C 56.611983 39.513672 48.75 47.288723 48.75 62.414062 C 48.75 76.684832 56.100347 84.119141 70.029297 84.119141 C 85.069267 84.119141 93.1875 76.001856 93.1875 60.791016 C 93.1875 46.434746 86.264533 39.513672 71.908203 39.513672 z M 168.01562 39.855469 C 168.01562 39.855469 159.3839 40.28125 156.13672 40.28125 C 152.40107 40.26025 148.49682 40.203859 144.78906 40.136719 C 143.03056 40.201219 138.78287 40.28125 135.54492 40.28125 C 131.44316 40.28125 123.1543 40.025391 123.1543 40.025391 L 122.8125 45.835938 L 123.24023 46.605469 L 125.37695 46.605469 C 127.08605 46.605469 127.51265 47.204429 127.68359 49.511719 L 128.02539 58.996094 L 126.83008 58.996094 C 126.83008 58.996094 120.24928 49.596261 114.60938 40.025391 C 114.60938 40.025391 108.96937 40.28125 104.95312 40.28125 C 99.313075 40.28125 93.84375 39.939453 93.84375 39.939453 L 93.417969 45.835938 L 94.357422 46.861328 C 98.801072 47.374088 99.570312 47.972528 99.570312 51.048828 L 98.714844 73.181641 C 98.629744 75.830691 97.517683 77.027251 94.783203 77.369141 L 94.015625 83.863281 C 94.015625 83.863281 100.33763 83.349609 105.46484 83.349609 C 108.54122 83.349609 116.83008 83.607422 116.83008 83.607422 L 117.68555 77.455078 L 116.91602 76.855469 C 116.91602 76.855469 115.54801 77.113281 114.69336 77.113281 C 112.557 77.113281 111.96044 76.256462 111.875 73.607422 L 111.5332 64.806641 L 112.73047 64.806641 C 112.73047 64.806641 118.53867 72.926727 125.7168 83.779297 L 140.50195 83.009766 L 141.44141 50.792969 C 141.52031 48.258339 142.44327 47.314661 144.94336 46.832031 C 148.07063 46.284931 148.94717 48.191904 148.96094 50.365234 L 148.96094 71.644531 C 148.96094 75.319041 147.93331 76.600521 144.42969 77.113281 L 143.91797 83.863281 C 143.91797 83.863281 150.24149 83.349609 154.25781 83.349609 C 158.87233 83.349609 165.70898 84.121094 165.70898 84.121094 C 181.0907 84.121094 190.4043 75.060449 190.4043 59.849609 C 190.4043 46.347919 183.05553 39.855469 168.01562 39.855469 z M 48.433594 39.939453 C 48.433594 39.939453 40.315563 40.28125 37.751953 40.28125 C 34.419203 40.28125 27.328125 40.111328 27.328125 40.111328 L 26.644531 46.007812 L 27.15625 46.777344 C 29.2071 46.862444 29.804688 47.373959 29.804688 48.912109 C 29.804688 49.937569 29.29208 51.135217 28.4375 51.904297 L 21.089844 60.107422 L 20.748047 62.244141 L 29.207031 79.078125 C 31.343381 83.265325 33.138925 84.460938 36.984375 84.460938 C 38.864345 84.460938 48.519531 83.693359 48.519531 83.693359 L 49.289062 78.308594 L 48.519531 77.199219 C 45.614101 76.686459 43.818986 74.976309 41.853516 71.130859 L 35.958984 59.509766 L 37.751953 56.945312 C 41.426393 51.903532 44.930461 48.486457 48.519531 46.435547 L 49.203125 41.050781 L 48.433594 39.939453 z M 25.447266 40.025391 C 25.447266 40.025391 15.705276 40.28125 12.628906 40.28125 C 11.518006 40.28125 0.8359375 40.197266 0.8359375 40.197266 L 0.15234375 45.666016 L 0.8359375 46.691406 L 2.6308594 46.691406 C 4.5963994 46.691406 5.109375 47.288887 5.109375 50.023438 L 5.109375 72.072266 C 5.1090502 75.83042 4.2539499 76.770652 0.58007812 77.625 L 0.068359375 83.693359 C 0.068359375 83.693359 7.6726494 83.351562 12.287109 83.351562 C 15.278109 83.351562 24.591797 83.607422 24.591797 83.607422 L 25.191406 77.625 L 24.591797 76.855469 C 24.591797 76.855469 23.909741 77.027344 22.457031 77.027344 C 20.662501 77.027344 20.234375 76.172547 20.234375 72.498047 L 20.748047 50.195312 C 20.833247 47.888153 21.431917 47.374051 24.935547 46.519531 L 25.447266 40.025391 z M 216.05273 40.025391 C 216.05273 40.025391 206.30923 40.28125 203.31836 40.28125 L 191.52734 40.28125 L 190.92773 45.666016 L 191.61133 46.691406 L 193.32031 46.691406 C 195.28565 46.691406 195.79883 47.288947 195.79883 50.023438 L 195.79883 72.070312 C 195.79883 75.744812 195.11548 76.685868 191.35547 77.455078 L 190.75781 83.607422 C 190.75781 83.607422 198.44943 83.351562 202.97852 83.351562 C 205.96939 83.351562 215.19727 83.607422 215.19727 83.607422 L 215.79492 77.625 L 215.19727 76.855469 C 215.19727 76.855469 214.59913 77.027344 213.14648 77.027344 C 211.35195 77.027344 210.92383 76.172547 210.92383 72.498047 C 210.92383 63.269067 211.18016 55.49197 211.60742 49.9375 C 211.86387 47.45939 212.37725 46.946791 215.53906 46.519531 L 216.05273 40.025391 z M 165.79492 49.255859 C 171.60577 49.255859 172.88672 51.902224 172.88672 62.583984 C 172.88672 71.898474 171.0076 74.976562 165.45312 74.976562 C 164.17122 74.976562 163.74219 74.378547 163.74219 72.242188 C 163.74219 62.073117 163.99852 56.092631 164.42578 51.050781 C 164.51088 49.769011 164.8549 49.255859 165.79492 49.255859 z M 70.541016 49.511719 C 74.642846 49.511719 75.583984 53.014525 75.583984 65.234375 C 75.583984 72.583515 74.643297 74.890625 71.310547 74.890625 C 67.294287 74.890625 66.353516 71.216084 66.353516 58.996094 C 66.353516 51.647084 67.208326 49.511719 70.541016 49.511719 z "
       transform="translate(143.00702,472.98841)"
       id="path5828-5" />
  </g>
</svg>
